<?xml version="1.0" encoding="UTF-8" standalone="no"?>
<svg width="491px" height="288px" viewBox="0 0 491 288" version="1.1" xmlns="http://www.w3.org/2000/svg" xmlns:xlink="http://www.w3.org/1999/xlink">
    <!-- Generator: Sketch 39.1 (31720) - http://www.bohemiancoding.com/sketch -->
    <title>Page 1</title>
    <desc>Created with Sketch.</desc>
    <defs></defs>
    <g id="MDK-Resources-Overview" stroke="none" stroke-width="1" fill="none" fill-rule="evenodd" opacity="0.138059701">
        <g id="MDK-Resources-Overview-D" transform="translate(-55.000000, -793.000000)" fill="#002D5B">
            <g id="BG" transform="translate(50.000000, 388.000000)">
                <path d="M486.461057,405 L486.461057,412.896014 L478.194637,412.896014 L478.194637,414.337809 L486.461057,414.337809 L486.461057,422.233823 L487.797306,422.233823 L487.797306,414.337809 L496,414.337809 L496,412.896014 L487.797306,412.896014 L487.797306,405 L486.461057,405 Z M456.932154,405 L456.932154,412.896014 L448.663743,412.896014 L448.663743,414.337809 L456.932154,414.337809 L456.932154,422.233823 L458.270394,422.233823 L458.270394,414.337809 L466.469106,414.337809 L466.469106,412.896014 L458.270394,412.896014 L458.270394,405 L456.932154,405 Z M427.40126,405 L427.40126,412.896014 L419.132849,412.896014 L419.132849,414.337809 L427.40126,414.337809 L427.40126,422.233823 L428.7395,422.233823 L428.7395,414.337809 L436.940203,414.337809 L436.940203,412.896014 L428.7395,412.896014 L428.7395,405 L427.40126,405 Z M397.870366,405 L397.870366,412.896014 L389.603946,412.896014 L389.603946,414.337809 L397.870366,414.337809 L397.870366,422.233823 L399.208606,422.233823 L399.208606,414.337809 L407.409309,414.337809 L407.409309,412.896014 L399.208606,412.896014 L399.208606,405 L397.870366,405 Z M309.281666,405 L309.281666,412.896014 L301.013254,412.896014 L301.013254,414.337809 L309.281666,414.337809 L309.281666,422.233823 L310.617914,422.233823 L310.617914,414.337809 L318.818617,414.337809 L318.818617,412.896014 L310.617914,412.896014 L310.617914,405 L309.281666,405 Z M279.74878,405 L279.74878,412.896014 L271.48236,412.896014 L271.48236,414.337809 L279.74878,414.337809 L279.74878,422.233823 L281.08702,422.233823 L281.08702,414.337809 L289.287723,414.337809 L289.287723,412.896014 L281.08702,412.896014 L281.08702,405 L279.74878,405 Z M250.217886,405 L250.217886,412.896014 L241.953457,412.896014 L241.953457,414.337809 L250.217886,414.337809 L250.217886,422.233823 L251.558117,422.233823 L251.558117,414.337809 L259.756829,414.337809 L259.756829,412.896014 L251.558117,412.896014 L251.558117,405 L250.217886,405 Z M220.690974,405 L220.690974,412.896014 L212.422563,412.896014 L212.422563,414.337809 L220.690974,414.337809 L220.690974,422.233823 L222.027223,422.233823 L222.027223,414.337809 L230.227926,414.337809 L230.227926,412.896014 L222.027223,412.896014 L222.027223,405 L220.690974,405 Z M191.158089,405 L191.158089,412.896014 L182.89366,412.896014 L182.89366,414.337809 L191.158089,414.337809 L191.158089,422.233823 L192.49832,422.233823 L192.49832,414.337809 L200.697031,414.337809 L200.697031,412.896014 L192.49832,412.896014 L192.49832,405 L191.158089,405 Z M161.629186,405 L161.629186,412.896014 L153.360774,412.896014 L153.360774,414.337809 L161.629186,414.337809 L161.629186,422.233823 L162.967426,422.233823 L162.967426,414.337809 L171.166137,414.337809 L171.166137,412.896014 L162.967426,412.896014 L162.967426,405 L161.629186,405 Z M132.100283,405 L132.100283,412.896014 L123.831871,412.896014 L123.831871,414.337809 L132.100283,414.337809 L132.100283,422.233823 L133.436531,422.233823 L133.436531,414.337809 L141.635243,414.337809 L141.635243,412.896014 L133.436531,412.896014 L133.436531,405 L132.100283,405 Z M102.567397,405 L102.567397,412.896014 L94.3009771,412.896014 L94.3009771,414.337809 L102.567397,414.337809 L102.567397,422.233823 L103.907629,422.233823 L103.907629,414.337809 L112.10634,414.337809 L112.10634,412.896014 L103.907629,412.896014 L103.907629,405 L102.567397,405 Z M73.0384943,405 L73.0384943,412.896014 L64.7700829,412.896014 L64.7700829,414.337809 L73.0384943,414.337809 L73.0384943,422.233823 L74.3747429,422.233823 L74.3747429,414.337809 L82.5774371,414.337809 L82.5774371,412.896014 L74.3747429,412.896014 L74.3747429,405 L73.0384943,405 Z M43.5076,405 L43.5076,412.896014 L35.2431714,412.896014 L35.2431714,414.337809 L43.5076,414.337809 L43.5076,422.233823 L44.8478314,422.233823 L44.8478314,414.337809 L53.0445514,414.337809 L53.0445514,412.896014 L44.8478314,412.896014 L44.8478314,405 L43.5076,405 Z M13.9786971,405 L13.9786971,412.896014 L5.71028571,412.896014 L5.71028571,414.337809 L13.9786971,414.337809 L13.9786971,422.233823 L15.3149457,422.233823 L15.3149457,414.337809 L23.51764,414.337809 L23.51764,412.896014 L15.3149457,412.896014 L15.3149457,405 L13.9786971,405 Z M-15.5521971,405 L-15.5521971,412.896014 L-23.8186171,412.896014 L-23.8186171,414.337809 L-15.5521971,414.337809 L-15.5521971,422.233823 L-14.2119657,422.233823 L-14.2119657,414.337809 L-6.01524571,414.337809 L-6.01524571,412.896014 L-14.2119657,412.896014 L-14.2119657,405 L-15.5521971,405 Z M-45.0811,405 L-45.0811,412.896014 L-53.34752,412.896014 L-53.34752,414.337809 L-45.0811,414.337809 L-45.0811,422.233823 L-43.74286,422.233823 L-43.74286,414.337809 L-35.54614,414.337809 L-35.54614,412.896014 L-43.74286,412.896014 L-43.74286,405 L-45.0811,405 Z M-74.6119943,405 L-74.6119943,412.896014 L-82.8804057,412.896014 L-82.8804057,414.337809 L-74.6119943,414.337809 L-74.6119943,422.233823 L-73.2757457,422.233823 L-73.2757457,414.337809 L-65.0730514,414.337809 L-65.0730514,412.896014 L-73.2757457,412.896014 L-73.2757457,405 L-74.6119943,405 Z M-104.142889,405 L-104.142889,412.896014 L-112.409309,412.896014 L-112.409309,414.337809 L-104.142889,414.337809 L-104.142889,422.233823 L-102.804649,422.233823 L-102.804649,414.337809 L-94.6059371,414.337809 L-94.6059371,412.896014 L-102.804649,412.896014 L-102.804649,405 L-104.142889,405 Z M-133.673783,405 L-133.673783,412.896014 L-141.940203,412.896014 L-141.940203,414.337809 L-133.673783,414.337809 L-133.673783,422.233823 L-132.335543,422.233823 L-132.335543,414.337809 L-124.13484,414.337809 L-124.13484,412.896014 L-132.335543,412.896014 L-132.335543,405 L-133.673783,405 Z M-163.202686,405 L-163.202686,412.896014 L-171.469106,412.896014 L-171.469106,414.337809 L-163.202686,414.337809 L-163.202686,422.233823 L-161.864446,422.233823 L-161.864446,414.337809 L-153.665734,414.337809 L-153.665734,412.896014 L-161.864446,412.896014 L-161.864446,405 L-163.202686,405 Z M-192.73358,405 L-192.73358,412.896014 L-201,412.896014 L-201,414.337809 L-192.73358,414.337809 L-192.73358,422.233823 L-191.39534,422.233823 L-191.39534,414.337809 L-183.196629,414.337809 L-183.196629,412.896014 L-191.39534,412.896014 L-191.39534,405 L-192.73358,405 Z M486.461057,429.542366 L486.461057,437.440371 L478.194637,437.440371 L478.194637,438.880174 L486.461057,438.880174 L486.461057,446.77818 L487.797306,446.77818 L487.797306,438.880174 L496,438.880174 L496,437.440371 L487.797306,437.440371 L487.797306,429.542366 L486.461057,429.542366 Z M456.932154,429.542366 L456.932154,437.440371 L448.663743,437.440371 L448.663743,438.880174 L456.932154,438.880174 L456.932154,446.77818 L458.270394,446.77818 L458.270394,438.880174 L466.469106,438.880174 L466.469106,437.440371 L458.270394,437.440371 L458.270394,429.542366 L456.932154,429.542366 Z M427.40126,429.542366 L427.40126,437.440371 L419.132849,437.440371 L419.132849,438.880174 L427.40126,438.880174 L427.40126,446.77818 L428.7395,446.77818 L428.7395,438.880174 L436.940203,438.880174 L436.940203,437.440371 L428.7395,437.440371 L428.7395,429.542366 L427.40126,429.542366 Z M397.870366,429.542366 L397.870366,437.440371 L389.603946,437.440371 L389.603946,438.880174 L397.870366,438.880174 L397.870366,446.77818 L399.208606,446.77818 L399.208606,438.880174 L407.409309,438.880174 L407.409309,437.440371 L399.208606,437.440371 L399.208606,429.542366 L397.870366,429.542366 Z M368.339471,429.542366 L368.339471,437.440371 L360.073051,437.440371 L360.073051,438.880174 L368.339471,438.880174 L368.339471,446.77818 L369.677711,446.77818 L369.677711,438.880174 L377.878414,438.880174 L377.878414,437.440371 L369.677711,437.440371 L369.677711,429.542366 L368.339471,429.542366 Z M279.74878,429.542366 L279.74878,437.440371 L271.48236,437.440371 L271.48236,438.880174 L279.74878,438.880174 L279.74878,446.77818 L281.08702,446.77818 L281.08702,438.880174 L289.287723,438.880174 L289.287723,437.440371 L281.08702,437.440371 L281.08702,429.542366 L279.74878,429.542366 Z M250.217886,429.542366 L250.217886,437.440371 L241.953457,437.440371 L241.953457,438.880174 L250.217886,438.880174 L250.217886,446.77818 L251.558117,446.77818 L251.558117,438.880174 L259.756829,438.880174 L259.756829,437.440371 L251.558117,437.440371 L251.558117,429.542366 L250.217886,429.542366 Z M191.158089,429.542366 L191.158089,437.440371 L182.89366,437.440371 L182.89366,438.880174 L191.158089,438.880174 L191.158089,446.77818 L192.49832,446.77818 L192.49832,438.880174 L200.697031,438.880174 L200.697031,437.440371 L192.49832,437.440371 L192.49832,429.542366 L191.158089,429.542366 Z M161.629186,429.542366 L161.629186,437.440371 L153.360774,437.440371 L153.360774,438.880174 L161.629186,438.880174 L161.629186,446.77818 L162.967426,446.77818 L162.967426,438.880174 L171.166137,438.880174 L171.166137,437.440371 L162.967426,437.440371 L162.967426,429.542366 L161.629186,429.542366 Z M132.100283,429.542366 L132.100283,437.440371 L123.831871,437.440371 L123.831871,438.880174 L132.100283,438.880174 L132.100283,446.77818 L133.436531,446.77818 L133.436531,438.880174 L141.635243,438.880174 L141.635243,437.440371 L133.436531,437.440371 L133.436531,429.542366 L132.100283,429.542366 Z M102.567397,429.542366 L102.567397,437.440371 L94.3009771,437.440371 L94.3009771,438.880174 L102.567397,438.880174 L102.567397,446.77818 L103.907629,446.77818 L103.907629,438.880174 L112.10634,438.880174 L112.10634,437.440371 L103.907629,437.440371 L103.907629,429.542366 L102.567397,429.542366 Z M73.0384943,429.542366 L73.0384943,437.440371 L64.7700829,437.440371 L64.7700829,438.880174 L73.0384943,438.880174 L73.0384943,446.77818 L74.3747429,446.77818 L74.3747429,438.880174 L82.5774371,438.880174 L82.5774371,437.440371 L74.3747429,437.440371 L74.3747429,429.542366 L73.0384943,429.542366 Z M43.5076,429.542366 L43.5076,437.440371 L35.2431714,437.440371 L35.2431714,438.880174 L43.5076,438.880174 L43.5076,446.77818 L44.8478314,446.77818 L44.8478314,438.880174 L53.0445514,438.880174 L53.0445514,437.440371 L44.8478314,437.440371 L44.8478314,429.542366 L43.5076,429.542366 Z M13.9786971,429.542366 L13.9786971,437.440371 L5.71028571,437.440371 L5.71028571,438.880174 L13.9786971,438.880174 L13.9786971,446.77818 L15.3149457,446.77818 L15.3149457,438.880174 L23.51764,438.880174 L23.51764,437.440371 L15.3149457,437.440371 L15.3149457,429.542366 L13.9786971,429.542366 Z M-15.5521971,429.542366 L-15.5521971,437.440371 L-23.8186171,437.440371 L-23.8186171,438.880174 L-15.5521971,438.880174 L-15.5521971,446.77818 L-14.2119657,446.77818 L-14.2119657,438.880174 L-6.01524571,438.880174 L-6.01524571,437.440371 L-14.2119657,437.440371 L-14.2119657,429.542366 L-15.5521971,429.542366 Z M-74.6119943,429.542366 L-74.6119943,437.440371 L-82.8804057,437.440371 L-82.8804057,438.880174 L-74.6119943,438.880174 L-74.6119943,446.77818 L-73.2757457,446.77818 L-73.2757457,438.880174 L-65.0730514,438.880174 L-65.0730514,437.440371 L-73.2757457,437.440371 L-73.2757457,429.542366 L-74.6119943,429.542366 Z M-133.673783,429.542366 L-133.673783,437.440371 L-141.940203,437.440371 L-141.940203,438.880174 L-133.673783,438.880174 L-133.673783,446.77818 L-132.335543,446.77818 L-132.335543,438.880174 L-124.13484,438.880174 L-124.13484,437.440371 L-132.335543,437.440371 L-132.335543,429.542366 L-133.673783,429.542366 Z M-163.202686,429.542366 L-163.202686,437.440371 L-171.469106,437.440371 L-171.469106,438.880174 L-163.202686,438.880174 L-163.202686,446.77818 L-161.864446,446.77818 L-161.864446,438.880174 L-153.665734,438.880174 L-153.665734,437.440371 L-161.864446,437.440371 L-161.864446,429.542366 L-163.202686,429.542366 Z M-192.73358,429.542366 L-192.73358,437.440371 L-201,437.440371 L-201,438.880174 L-192.73358,438.880174 L-192.73358,446.77818 L-191.39534,446.77818 L-191.39534,438.880174 L-183.196629,438.880174 L-183.196629,437.440371 L-191.39534,437.440371 L-191.39534,429.542366 L-192.73358,429.542366 Z M486.461057,454.080749 L486.461057,461.982737 L478.194637,461.982737 L478.194637,463.418557 L486.461057,463.418557 L486.461057,471.320546 L487.797306,471.320546 L487.797306,463.418557 L496,463.418557 L496,461.982737 L487.797306,461.982737 L487.797306,454.080749 L486.461057,454.080749 Z M456.932154,454.080749 L456.932154,461.982737 L448.663743,461.982737 L448.663743,463.418557 L456.932154,463.418557 L456.932154,471.320546 L458.270394,471.320546 L458.270394,463.418557 L466.469106,463.418557 L466.469106,461.982737 L458.270394,461.982737 L458.270394,454.080749 L456.932154,454.080749 Z M427.40126,454.080749 L427.40126,461.982737 L419.132849,461.982737 L419.132849,463.418557 L427.40126,463.418557 L427.40126,471.320546 L428.7395,471.320546 L428.7395,463.418557 L436.940203,463.418557 L436.940203,461.982737 L428.7395,461.982737 L428.7395,454.080749 L427.40126,454.080749 Z M397.870366,454.080749 L397.870366,461.982737 L389.603946,461.982737 L389.603946,463.418557 L397.870366,463.418557 L397.870366,471.320546 L399.208606,471.320546 L399.208606,463.418557 L407.409309,463.418557 L407.409309,461.982737 L399.208606,461.982737 L399.208606,454.080749 L397.870366,454.080749 Z M368.339471,454.080749 L368.339471,461.982737 L360.073051,461.982737 L360.073051,463.418557 L368.339471,463.418557 L368.339471,471.320546 L369.677711,471.320546 L369.677711,463.418557 L377.878414,463.418557 L377.878414,461.982737 L369.677711,461.982737 L369.677711,454.080749 L368.339471,454.080749 Z M279.74878,454.080749 L279.74878,461.982737 L271.48236,461.982737 L271.48236,463.418557 L279.74878,463.418557 L279.74878,471.320546 L281.08702,471.320546 L281.08702,463.418557 L289.287723,463.418557 L289.287723,461.982737 L281.08702,461.982737 L281.08702,454.080749 L279.74878,454.080749 Z M250.217886,454.080749 L250.217886,461.982737 L241.953457,461.982737 L241.953457,463.418557 L250.217886,463.418557 L250.217886,471.320546 L251.558117,471.320546 L251.558117,463.418557 L259.756829,463.418557 L259.756829,461.982737 L251.558117,461.982737 L251.558117,454.080749 L250.217886,454.080749 Z M220.690974,454.080749 L220.690974,461.982737 L212.422563,461.982737 L212.422563,463.418557 L220.690974,463.418557 L220.690974,471.320546 L222.027223,471.320546 L222.027223,463.418557 L230.227926,463.418557 L230.227926,461.982737 L222.027223,461.982737 L222.027223,454.080749 L220.690974,454.080749 Z M191.158089,454.080749 L191.158089,461.982737 L182.89366,461.982737 L182.89366,463.418557 L191.158089,463.418557 L191.158089,471.320546 L192.49832,471.320546 L192.49832,463.418557 L200.697031,463.418557 L200.697031,461.982737 L192.49832,461.982737 L192.49832,454.080749 L191.158089,454.080749 Z M161.629186,454.080749 L161.629186,461.982737 L153.360774,461.982737 L153.360774,463.418557 L161.629186,463.418557 L161.629186,471.320546 L162.967426,471.320546 L162.967426,463.418557 L171.166137,463.418557 L171.166137,461.982737 L162.967426,461.982737 L162.967426,454.080749 L161.629186,454.080749 Z M102.567397,454.080749 L102.567397,461.982737 L94.3009771,461.982737 L94.3009771,463.418557 L102.567397,463.418557 L102.567397,471.320546 L103.907629,471.320546 L103.907629,463.418557 L112.10634,463.418557 L112.10634,461.982737 L103.907629,461.982737 L103.907629,454.080749 L102.567397,454.080749 Z M73.0384943,454.080749 L73.0384943,461.982737 L64.7700829,461.982737 L64.7700829,463.418557 L73.0384943,463.418557 L73.0384943,471.320546 L74.3747429,471.320546 L74.3747429,463.418557 L82.5774371,463.418557 L82.5774371,461.982737 L74.3747429,461.982737 L74.3747429,454.080749 L73.0384943,454.080749 Z M43.5076,454.080749 L43.5076,461.982737 L35.2431714,461.982737 L35.2431714,463.418557 L43.5076,463.418557 L43.5076,471.320546 L44.8478314,471.320546 L44.8478314,463.418557 L53.0445514,463.418557 L53.0445514,461.982737 L44.8478314,461.982737 L44.8478314,454.080749 L43.5076,454.080749 Z M13.9786971,454.080749 L13.9786971,461.982737 L5.71028571,461.982737 L5.71028571,463.418557 L13.9786971,463.418557 L13.9786971,471.320546 L15.3149457,471.320546 L15.3149457,463.418557 L23.51764,463.418557 L23.51764,461.982737 L15.3149457,461.982737 L15.3149457,454.080749 L13.9786971,454.080749 Z M-15.5521971,454.080749 L-15.5521971,461.982737 L-23.8186171,461.982737 L-23.8186171,463.418557 L-15.5521971,463.418557 L-15.5521971,471.320546 L-14.2119657,471.320546 L-14.2119657,463.418557 L-6.01524571,463.418557 L-6.01524571,461.982737 L-14.2119657,461.982737 L-14.2119657,454.080749 L-15.5521971,454.080749 Z M-45.0811,454.080749 L-45.0811,461.982737 L-53.34752,461.982737 L-53.34752,463.418557 L-45.0811,463.418557 L-45.0811,471.320546 L-43.74286,471.320546 L-43.74286,463.418557 L-35.54614,463.418557 L-35.54614,461.982737 L-43.74286,461.982737 L-43.74286,454.080749 L-45.0811,454.080749 Z M-74.6119943,454.080749 L-74.6119943,461.982737 L-82.8804057,461.982737 L-82.8804057,463.418557 L-74.6119943,463.418557 L-74.6119943,471.320546 L-73.2757457,471.320546 L-73.2757457,463.418557 L-65.0730514,463.418557 L-65.0730514,461.982737 L-73.2757457,461.982737 L-73.2757457,454.080749 L-74.6119943,454.080749 Z M-104.142889,454.080749 L-104.142889,461.982737 L-112.409309,461.982737 L-112.409309,463.418557 L-104.142889,463.418557 L-104.142889,471.320546 L-102.804649,471.320546 L-102.804649,463.418557 L-94.6059371,463.418557 L-94.6059371,461.982737 L-102.804649,461.982737 L-102.804649,454.080749 L-104.142889,454.080749 Z M-133.673783,454.080749 L-133.673783,461.982737 L-141.940203,461.982737 L-141.940203,463.418557 L-133.673783,463.418557 L-133.673783,471.320546 L-132.335543,471.320546 L-132.335543,463.418557 L-124.13484,463.418557 L-124.13484,461.982737 L-132.335543,461.982737 L-132.335543,454.080749 L-133.673783,454.080749 Z M-163.202686,454.080749 L-163.202686,461.982737 L-171.469106,461.982737 L-171.469106,463.418557 L-163.202686,463.418557 L-163.202686,471.320546 L-161.864446,471.320546 L-161.864446,463.418557 L-153.665734,463.418557 L-153.665734,461.982737 L-161.864446,461.982737 L-161.864446,454.080749 L-163.202686,454.080749 Z M-192.73358,454.080749 L-192.73358,461.982737 L-201,461.982737 L-201,463.418557 L-192.73358,463.418557 L-192.73358,471.320546 L-191.39534,471.320546 L-191.39534,463.418557 L-183.196629,463.418557 L-183.196629,461.982737 L-191.39534,461.982737 L-191.39534,454.080749 L-192.73358,454.080749 Z M486.461057,478.625106 L486.461057,486.525103 L478.194637,486.525103 L478.194637,487.962914 L486.461057,487.962914 L486.461057,495.86092 L487.797306,495.86092 L487.797306,487.962914 L496,487.962914 L496,486.525103 L487.797306,486.525103 L487.797306,478.625106 L486.461057,478.625106 Z M456.932154,478.625106 L456.932154,486.525103 L448.663743,486.525103 L448.663743,487.962914 L456.932154,487.962914 L456.932154,495.86092 L458.270394,495.86092 L458.270394,487.962914 L466.469106,487.962914 L466.469106,486.525103 L458.270394,486.525103 L458.270394,478.625106 L456.932154,478.625106 Z M427.40126,478.625106 L427.40126,486.525103 L419.132849,486.525103 L419.132849,487.962914 L427.40126,487.962914 L427.40126,495.86092 L428.7395,495.86092 L428.7395,487.962914 L436.940203,487.962914 L436.940203,486.525103 L428.7395,486.525103 L428.7395,478.625106 L427.40126,478.625106 Z M397.870366,478.625106 L397.870366,486.525103 L389.603946,486.525103 L389.603946,487.962914 L397.870366,487.962914 L397.870366,495.86092 L399.208606,495.86092 L399.208606,487.962914 L407.409309,487.962914 L407.409309,486.525103 L399.208606,486.525103 L399.208606,478.625106 L397.870366,478.625106 Z M368.339471,478.625106 L368.339471,486.525103 L360.073051,486.525103 L360.073051,487.962914 L368.339471,487.962914 L368.339471,495.86092 L369.677711,495.86092 L369.677711,487.962914 L377.878414,487.962914 L377.878414,486.525103 L369.677711,486.525103 L369.677711,478.625106 L368.339471,478.625106 Z M338.808577,478.625106 L338.808577,486.525103 L330.544149,486.525103 L330.544149,487.962914 L338.808577,487.962914 L338.808577,495.86092 L340.148809,495.86092 L340.148809,487.962914 L348.34752,487.962914 L348.34752,486.525103 L340.148809,486.525103 L340.148809,478.625106 L338.808577,478.625106 Z M309.281666,478.625106 L309.281666,486.525103 L301.013254,486.525103 L301.013254,487.962914 L309.281666,487.962914 L309.281666,495.86092 L310.617914,495.86092 L310.617914,487.962914 L318.818617,487.962914 L318.818617,486.525103 L310.617914,486.525103 L310.617914,478.625106 L309.281666,478.625106 Z M279.74878,478.625106 L279.74878,486.525103 L271.48236,486.525103 L271.48236,487.962914 L279.74878,487.962914 L279.74878,495.86092 L281.08702,495.86092 L281.08702,487.962914 L289.287723,487.962914 L289.287723,486.525103 L281.08702,486.525103 L281.08702,478.625106 L279.74878,478.625106 Z M250.217886,478.625106 L250.217886,486.525103 L241.953457,486.525103 L241.953457,487.962914 L250.217886,487.962914 L250.217886,495.86092 L251.558117,495.86092 L251.558117,487.962914 L259.756829,487.962914 L259.756829,486.525103 L251.558117,486.525103 L251.558117,478.625106 L250.217886,478.625106 Z M220.690974,478.625106 L220.690974,486.525103 L212.422563,486.525103 L212.422563,487.962914 L220.690974,487.962914 L220.690974,495.86092 L222.027223,495.86092 L222.027223,487.962914 L230.227926,487.962914 L230.227926,486.525103 L222.027223,486.525103 L222.027223,478.625106 L220.690974,478.625106 Z M191.158089,478.625106 L191.158089,486.525103 L182.89366,486.525103 L182.89366,487.962914 L191.158089,487.962914 L191.158089,495.86092 L192.49832,495.86092 L192.49832,487.962914 L200.697031,487.962914 L200.697031,486.525103 L192.49832,486.525103 L192.49832,478.625106 L191.158089,478.625106 Z M161.629186,478.625106 L161.629186,486.525103 L153.360774,486.525103 L153.360774,487.962914 L161.629186,487.962914 L161.629186,495.86092 L162.967426,495.86092 L162.967426,487.962914 L171.166137,487.962914 L171.166137,486.525103 L162.967426,486.525103 L162.967426,478.625106 L161.629186,478.625106 Z M132.100283,478.625106 L132.100283,486.525103 L123.831871,486.525103 L123.831871,487.962914 L132.100283,487.962914 L132.100283,495.86092 L133.436531,495.86092 L133.436531,487.962914 L141.635243,487.962914 L141.635243,486.525103 L133.436531,486.525103 L133.436531,478.625106 L132.100283,478.625106 Z M102.567397,478.625106 L102.567397,486.525103 L94.3009771,486.525103 L94.3009771,487.962914 L102.567397,487.962914 L102.567397,495.86092 L103.907629,495.86092 L103.907629,487.962914 L112.10634,487.962914 L112.10634,486.525103 L103.907629,486.525103 L103.907629,478.625106 L102.567397,478.625106 Z M73.0384943,478.625106 L73.0384943,486.525103 L64.7700829,486.525103 L64.7700829,487.962914 L73.0384943,487.962914 L73.0384943,495.86092 L74.3747429,495.86092 L74.3747429,487.962914 L82.5774371,487.962914 L82.5774371,486.525103 L74.3747429,486.525103 L74.3747429,478.625106 L73.0384943,478.625106 Z M13.9786971,478.625106 L13.9786971,486.525103 L5.71028571,486.525103 L5.71028571,487.962914 L13.9786971,487.962914 L13.9786971,495.86092 L15.3149457,495.86092 L15.3149457,487.962914 L23.51764,487.962914 L23.51764,486.525103 L15.3149457,486.525103 L15.3149457,478.625106 L13.9786971,478.625106 Z M-15.5521971,478.625106 L-15.5521971,486.525103 L-23.8186171,486.525103 L-23.8186171,487.962914 L-15.5521971,487.962914 L-15.5521971,495.86092 L-14.2119657,495.86092 L-14.2119657,487.962914 L-6.01524571,487.962914 L-6.01524571,486.525103 L-14.2119657,486.525103 L-14.2119657,478.625106 L-15.5521971,478.625106 Z M-74.6119943,478.625106 L-74.6119943,486.525103 L-82.8804057,486.525103 L-82.8804057,487.962914 L-74.6119943,487.962914 L-74.6119943,495.86092 L-73.2757457,495.86092 L-73.2757457,487.962914 L-65.0730514,487.962914 L-65.0730514,486.525103 L-73.2757457,486.525103 L-73.2757457,478.625106 L-74.6119943,478.625106 Z M-104.142889,478.625106 L-104.142889,486.525103 L-112.409309,486.525103 L-112.409309,487.962914 L-104.142889,487.962914 L-104.142889,495.86092 L-102.804649,495.86092 L-102.804649,487.962914 L-94.6059371,487.962914 L-94.6059371,486.525103 L-102.804649,486.525103 L-102.804649,478.625106 L-104.142889,478.625106 Z M-133.673783,478.625106 L-133.673783,486.525103 L-141.940203,486.525103 L-141.940203,487.962914 L-133.673783,487.962914 L-133.673783,495.86092 L-132.335543,495.86092 L-132.335543,487.962914 L-124.13484,487.962914 L-124.13484,486.525103 L-132.335543,486.525103 L-132.335543,478.625106 L-133.673783,478.625106 Z M486.461057,503.167471 L486.461057,511.065477 L478.194637,511.065477 L478.194637,512.50528 L486.461057,512.50528 L486.461057,520.403286 L487.797306,520.403286 L487.797306,512.50528 L496,512.50528 L496,511.065477 L487.797306,511.065477 L487.797306,503.167471 L486.461057,503.167471 Z M456.932154,503.167471 L456.932154,511.065477 L448.663743,511.065477 L448.663743,512.50528 L456.932154,512.50528 L456.932154,520.403286 L458.270394,520.403286 L458.270394,512.50528 L466.469106,512.50528 L466.469106,511.065477 L458.270394,511.065477 L458.270394,503.167471 L456.932154,503.167471 Z M427.40126,503.167471 L427.40126,511.065477 L419.132849,511.065477 L419.132849,512.50528 L427.40126,512.50528 L427.40126,520.403286 L428.7395,520.403286 L428.7395,512.50528 L436.940203,512.50528 L436.940203,511.065477 L428.7395,511.065477 L428.7395,503.167471 L427.40126,503.167471 Z M397.870366,503.167471 L397.870366,511.065477 L389.603946,511.065477 L389.603946,512.50528 L397.870366,512.50528 L397.870366,520.403286 L399.208606,520.403286 L399.208606,512.50528 L407.409309,512.50528 L407.409309,511.065477 L399.208606,511.065477 L399.208606,503.167471 L397.870366,503.167471 Z M368.339471,503.167471 L368.339471,511.065477 L360.073051,511.065477 L360.073051,512.50528 L368.339471,512.50528 L368.339471,520.403286 L369.677711,520.403286 L369.677711,512.50528 L377.878414,512.50528 L377.878414,511.065477 L369.677711,511.065477 L369.677711,503.167471 L368.339471,503.167471 Z M338.808577,503.167471 L338.808577,511.065477 L330.544149,511.065477 L330.544149,512.50528 L338.808577,512.50528 L338.808577,520.403286 L340.148809,520.403286 L340.148809,512.50528 L348.34752,512.50528 L348.34752,511.065477 L340.148809,511.065477 L340.148809,503.167471 L338.808577,503.167471 Z M309.281666,503.167471 L309.281666,511.065477 L301.013254,511.065477 L301.013254,512.50528 L309.281666,512.50528 L309.281666,520.403286 L310.617914,520.403286 L310.617914,512.50528 L318.818617,512.50528 L318.818617,511.065477 L310.617914,511.065477 L310.617914,503.167471 L309.281666,503.167471 Z M279.74878,503.167471 L279.74878,511.065477 L271.48236,511.065477 L271.48236,512.50528 L279.74878,512.50528 L279.74878,520.403286 L281.08702,520.403286 L281.08702,512.50528 L289.287723,512.50528 L289.287723,511.065477 L281.08702,511.065477 L281.08702,503.167471 L279.74878,503.167471 Z M250.217886,503.167471 L250.217886,511.065477 L241.953457,511.065477 L241.953457,512.50528 L250.217886,512.50528 L250.217886,520.403286 L251.558117,520.403286 L251.558117,512.50528 L259.756829,512.50528 L259.756829,511.065477 L251.558117,511.065477 L251.558117,503.167471 L250.217886,503.167471 Z M220.690974,503.167471 L220.690974,511.065477 L212.422563,511.065477 L212.422563,512.50528 L220.690974,512.50528 L220.690974,520.403286 L222.027223,520.403286 L222.027223,512.50528 L230.227926,512.50528 L230.227926,511.065477 L222.027223,511.065477 L222.027223,503.167471 L220.690974,503.167471 Z M161.629186,503.167471 L161.629186,511.065477 L153.360774,511.065477 L153.360774,512.50528 L161.629186,512.50528 L161.629186,520.403286 L162.967426,520.403286 L162.967426,512.50528 L171.166137,512.50528 L171.166137,511.065477 L162.967426,511.065477 L162.967426,503.167471 L161.629186,503.167471 Z M132.100283,503.167471 L132.100283,511.065477 L123.831871,511.065477 L123.831871,512.50528 L132.100283,512.50528 L132.100283,520.403286 L133.436531,520.403286 L133.436531,512.50528 L141.635243,512.50528 L141.635243,511.065477 L133.436531,511.065477 L133.436531,503.167471 L132.100283,503.167471 Z M102.567397,503.167471 L102.567397,511.065477 L94.3009771,511.065477 L94.3009771,512.50528 L102.567397,512.50528 L102.567397,520.403286 L103.907629,520.403286 L103.907629,512.50528 L112.10634,512.50528 L112.10634,511.065477 L103.907629,511.065477 L103.907629,503.167471 L102.567397,503.167471 Z M43.5076,503.167471 L43.5076,511.065477 L35.2431714,511.065477 L35.2431714,512.50528 L43.5076,512.50528 L43.5076,520.403286 L44.8478314,520.403286 L44.8478314,512.50528 L53.0445514,512.50528 L53.0445514,511.065477 L44.8478314,511.065477 L44.8478314,503.167471 L43.5076,503.167471 Z M13.9786971,503.167471 L13.9786971,511.065477 L5.71028571,511.065477 L5.71028571,512.50528 L13.9786971,512.50528 L13.9786971,520.403286 L15.3149457,520.403286 L15.3149457,512.50528 L23.51764,512.50528 L23.51764,511.065477 L15.3149457,511.065477 L15.3149457,503.167471 L13.9786971,503.167471 Z M-15.5521971,503.167471 L-15.5521971,511.065477 L-23.8186171,511.065477 L-23.8186171,512.50528 L-15.5521971,512.50528 L-15.5521971,520.403286 L-14.2119657,520.403286 L-14.2119657,512.50528 L-6.01524571,512.50528 L-6.01524571,511.065477 L-14.2119657,511.065477 L-14.2119657,503.167471 L-15.5521971,503.167471 Z M-45.0811,503.167471 L-45.0811,511.065477 L-53.34752,511.065477 L-53.34752,512.50528 L-45.0811,512.50528 L-45.0811,520.403286 L-43.74286,520.403286 L-43.74286,512.50528 L-35.54614,512.50528 L-35.54614,511.065477 L-43.74286,511.065477 L-43.74286,503.167471 L-45.0811,503.167471 Z M-74.6119943,503.167471 L-74.6119943,511.065477 L-82.8804057,511.065477 L-82.8804057,512.50528 L-74.6119943,512.50528 L-74.6119943,520.403286 L-73.2757457,520.403286 L-73.2757457,512.50528 L-65.0730514,512.50528 L-65.0730514,511.065477 L-73.2757457,511.065477 L-73.2757457,503.167471 L-74.6119943,503.167471 Z M-104.142889,503.167471 L-104.142889,511.065477 L-112.409309,511.065477 L-112.409309,512.50528 L-104.142889,512.50528 L-104.142889,520.403286 L-102.804649,520.403286 L-102.804649,512.50528 L-94.6059371,512.50528 L-94.6059371,511.065477 L-102.804649,511.065477 L-102.804649,503.167471 L-104.142889,503.167471 Z M-133.673783,503.167471 L-133.673783,511.065477 L-141.940203,511.065477 L-141.940203,512.50528 L-133.673783,512.50528 L-133.673783,520.403286 L-132.335543,520.403286 L-132.335543,512.50528 L-124.13484,512.50528 L-124.13484,511.065477 L-132.335543,511.065477 L-132.335543,503.167471 L-133.673783,503.167471 Z M-163.202686,503.167471 L-163.202686,511.065477 L-171.469106,511.065477 L-171.469106,512.50528 L-163.202686,512.50528 L-163.202686,520.403286 L-161.864446,520.403286 L-161.864446,512.50528 L-153.665734,512.50528 L-153.665734,511.065477 L-161.864446,511.065477 L-161.864446,503.167471 L-163.202686,503.167471 Z M486.461057,527.709837 L486.461057,535.607843 L478.194637,535.607843 L478.194637,537.047646 L486.461057,537.047646 L486.461057,544.945651 L487.797306,544.945651 L487.797306,537.047646 L496,537.047646 L496,535.607843 L487.797306,535.607843 L487.797306,527.709837 L486.461057,527.709837 Z M456.932154,527.709837 L456.932154,535.607843 L448.663743,535.607843 L448.663743,537.047646 L456.932154,537.047646 L456.932154,544.945651 L458.270394,544.945651 L458.270394,537.047646 L466.469106,537.047646 L466.469106,535.607843 L458.270394,535.607843 L458.270394,527.709837 L456.932154,527.709837 Z M427.40126,527.709837 L427.40126,535.607843 L419.132849,535.607843 L419.132849,537.047646 L427.40126,537.047646 L427.40126,544.945651 L428.7395,544.945651 L428.7395,537.047646 L436.940203,537.047646 L436.940203,535.607843 L428.7395,535.607843 L428.7395,527.709837 L427.40126,527.709837 Z M368.339471,527.709837 L368.339471,535.607843 L360.073051,535.607843 L360.073051,537.047646 L368.339471,537.047646 L368.339471,544.945651 L369.677711,544.945651 L369.677711,537.047646 L377.878414,537.047646 L377.878414,535.607843 L369.677711,535.607843 L369.677711,527.709837 L368.339471,527.709837 Z M338.808577,527.709837 L338.808577,535.607843 L330.544149,535.607843 L330.544149,537.047646 L338.808577,537.047646 L338.808577,544.945651 L340.148809,544.945651 L340.148809,537.047646 L348.34752,537.047646 L348.34752,535.607843 L340.148809,535.607843 L340.148809,527.709837 L338.808577,527.709837 Z M309.281666,527.709837 L309.281666,535.607843 L301.013254,535.607843 L301.013254,537.047646 L309.281666,537.047646 L309.281666,544.945651 L310.617914,544.945651 L310.617914,537.047646 L318.818617,537.047646 L318.818617,535.607843 L310.617914,535.607843 L310.617914,527.709837 L309.281666,527.709837 Z M279.74878,527.709837 L279.74878,535.607843 L271.48236,535.607843 L271.48236,537.047646 L279.74878,537.047646 L279.74878,544.945651 L281.08702,544.945651 L281.08702,537.047646 L289.287723,537.047646 L289.287723,535.607843 L281.08702,535.607843 L281.08702,527.709837 L279.74878,527.709837 Z M220.690974,527.709837 L220.690974,535.607843 L212.422563,535.607843 L212.422563,537.047646 L220.690974,537.047646 L220.690974,544.945651 L222.027223,544.945651 L222.027223,537.047646 L230.227926,537.047646 L230.227926,535.607843 L222.027223,535.607843 L222.027223,527.709837 L220.690974,527.709837 Z M191.158089,527.709837 L191.158089,535.607843 L182.89366,535.607843 L182.89366,537.047646 L191.158089,537.047646 L191.158089,544.945651 L192.49832,544.945651 L192.49832,537.047646 L200.697031,537.047646 L200.697031,535.607843 L192.49832,535.607843 L192.49832,527.709837 L191.158089,527.709837 Z M161.629186,527.709837 L161.629186,535.607843 L153.360774,535.607843 L153.360774,537.047646 L161.629186,537.047646 L161.629186,544.945651 L162.967426,544.945651 L162.967426,537.047646 L171.166137,537.047646 L171.166137,535.607843 L162.967426,535.607843 L162.967426,527.709837 L161.629186,527.709837 Z M132.100283,527.709837 L132.100283,535.607843 L123.831871,535.607843 L123.831871,537.047646 L132.100283,537.047646 L132.100283,544.945651 L133.436531,544.945651 L133.436531,537.047646 L141.635243,537.047646 L141.635243,535.607843 L133.436531,535.607843 L133.436531,527.709837 L132.100283,527.709837 Z M73.0384943,527.709837 L73.0384943,535.607843 L64.7700829,535.607843 L64.7700829,537.047646 L73.0384943,537.047646 L73.0384943,544.945651 L74.3747429,544.945651 L74.3747429,537.047646 L82.5774371,537.047646 L82.5774371,535.607843 L74.3747429,535.607843 L74.3747429,527.709837 L73.0384943,527.709837 Z M43.5076,527.709837 L43.5076,535.607843 L35.2431714,535.607843 L35.2431714,537.047646 L43.5076,537.047646 L43.5076,544.945651 L44.8478314,544.945651 L44.8478314,537.047646 L53.0445514,537.047646 L53.0445514,535.607843 L44.8478314,535.607843 L44.8478314,527.709837 L43.5076,527.709837 Z M-15.5521971,527.709837 L-15.5521971,535.607843 L-23.8186171,535.607843 L-23.8186171,537.047646 L-15.5521971,537.047646 L-15.5521971,544.945651 L-14.2119657,544.945651 L-14.2119657,537.047646 L-6.01524571,537.047646 L-6.01524571,535.607843 L-14.2119657,535.607843 L-14.2119657,527.709837 L-15.5521971,527.709837 Z M-45.0811,527.709837 L-45.0811,535.607843 L-53.34752,535.607843 L-53.34752,537.047646 L-45.0811,537.047646 L-45.0811,544.945651 L-43.74286,544.945651 L-43.74286,537.047646 L-35.54614,537.047646 L-35.54614,535.607843 L-43.74286,535.607843 L-43.74286,527.709837 L-45.0811,527.709837 Z M-74.6119943,527.709837 L-74.6119943,535.607843 L-82.8804057,535.607843 L-82.8804057,537.047646 L-74.6119943,537.047646 L-74.6119943,544.945651 L-73.2757457,544.945651 L-73.2757457,537.047646 L-65.0730514,537.047646 L-65.0730514,535.607843 L-73.2757457,535.607843 L-73.2757457,527.709837 L-74.6119943,527.709837 Z M-133.673783,527.709837 L-133.673783,535.607843 L-141.940203,535.607843 L-141.940203,537.047646 L-133.673783,537.047646 L-133.673783,544.945651 L-132.335543,544.945651 L-132.335543,537.047646 L-124.13484,537.047646 L-124.13484,535.607843 L-132.335543,535.607843 L-132.335543,527.709837 L-133.673783,527.709837 Z M486.461057,552.250211 L486.461057,560.150209 L478.194637,560.150209 L478.194637,561.58802 L486.461057,561.58802 L486.461057,569.488017 L487.797306,569.488017 L487.797306,561.58802 L496,561.58802 L496,560.150209 L487.797306,560.150209 L487.797306,552.250211 L486.461057,552.250211 Z M456.932154,552.250211 L456.932154,560.150209 L448.663743,560.150209 L448.663743,561.58802 L456.932154,561.58802 L456.932154,569.488017 L458.270394,569.488017 L458.270394,561.58802 L466.469106,561.58802 L466.469106,560.150209 L458.270394,560.150209 L458.270394,552.250211 L456.932154,552.250211 Z M427.40126,552.250211 L427.40126,560.150209 L419.132849,560.150209 L419.132849,561.58802 L427.40126,561.58802 L427.40126,569.488017 L428.7395,569.488017 L428.7395,561.58802 L436.940203,561.58802 L436.940203,560.150209 L428.7395,560.150209 L428.7395,552.250211 L427.40126,552.250211 Z M397.870366,552.250211 L397.870366,560.150209 L389.603946,560.150209 L389.603946,561.58802 L397.870366,561.58802 L397.870366,569.488017 L399.208606,569.488017 L399.208606,561.58802 L407.409309,561.58802 L407.409309,560.150209 L399.208606,560.150209 L399.208606,552.250211 L397.870366,552.250211 Z M368.339471,552.250211 L368.339471,560.150209 L360.073051,560.150209 L360.073051,561.58802 L368.339471,561.58802 L368.339471,569.488017 L369.677711,569.488017 L369.677711,561.58802 L377.878414,561.58802 L377.878414,560.150209 L369.677711,560.150209 L369.677711,552.250211 L368.339471,552.250211 Z M309.281666,552.250211 L309.281666,560.150209 L301.013254,560.150209 L301.013254,561.58802 L309.281666,561.58802 L309.281666,569.488017 L310.617914,569.488017 L310.617914,561.58802 L318.818617,561.58802 L318.818617,560.150209 L310.617914,560.150209 L310.617914,552.250211 L309.281666,552.250211 Z M250.217886,552.250211 L250.217886,560.150209 L241.953457,560.150209 L241.953457,561.58802 L250.217886,561.58802 L250.217886,569.488017 L251.558117,569.488017 L251.558117,561.58802 L259.756829,561.58802 L259.756829,560.150209 L251.558117,560.150209 L251.558117,552.250211 L250.217886,552.250211 Z M191.158089,552.250211 L191.158089,560.150209 L182.89366,560.150209 L182.89366,561.58802 L191.158089,561.58802 L191.158089,569.488017 L192.49832,569.488017 L192.49832,561.58802 L200.697031,561.58802 L200.697031,560.150209 L192.49832,560.150209 L192.49832,552.250211 L191.158089,552.250211 Z M132.100283,552.250211 L132.100283,560.150209 L123.831871,560.150209 L123.831871,561.58802 L132.100283,561.58802 L132.100283,569.488017 L133.436531,569.488017 L133.436531,561.58802 L141.635243,561.58802 L141.635243,560.150209 L133.436531,560.150209 L133.436531,552.250211 L132.100283,552.250211 Z M102.567397,552.250211 L102.567397,560.150209 L94.3009771,560.150209 L94.3009771,561.58802 L102.567397,561.58802 L102.567397,569.488017 L103.907629,569.488017 L103.907629,561.58802 L112.10634,561.58802 L112.10634,560.150209 L103.907629,560.150209 L103.907629,552.250211 L102.567397,552.250211 Z M73.0384943,552.250211 L73.0384943,560.150209 L64.7700829,560.150209 L64.7700829,561.58802 L73.0384943,561.58802 L73.0384943,569.488017 L74.3747429,569.488017 L74.3747429,561.58802 L82.5774371,561.58802 L82.5774371,560.150209 L74.3747429,560.150209 L74.3747429,552.250211 L73.0384943,552.250211 Z M43.5076,552.250211 L43.5076,560.150209 L35.2431714,560.150209 L35.2431714,561.58802 L43.5076,561.58802 L43.5076,569.488017 L44.8478314,569.488017 L44.8478314,561.58802 L53.0445514,561.58802 L53.0445514,560.150209 L44.8478314,560.150209 L44.8478314,552.250211 L43.5076,552.250211 Z M13.9786971,552.250211 L13.9786971,560.150209 L5.71028571,560.150209 L5.71028571,561.58802 L13.9786971,561.58802 L13.9786971,569.488017 L15.3149457,569.488017 L15.3149457,561.58802 L23.51764,561.58802 L23.51764,560.150209 L15.3149457,560.150209 L15.3149457,552.250211 L13.9786971,552.250211 Z M-15.5521971,552.250211 L-15.5521971,560.150209 L-23.8186171,560.150209 L-23.8186171,561.58802 L-15.5521971,561.58802 L-15.5521971,569.488017 L-14.2119657,569.488017 L-14.2119657,561.58802 L-6.01524571,561.58802 L-6.01524571,560.150209 L-14.2119657,560.150209 L-14.2119657,552.250211 L-15.5521971,552.250211 Z M-104.142889,552.250211 L-104.142889,560.150209 L-112.409309,560.150209 L-112.409309,561.58802 L-104.142889,561.58802 L-104.142889,569.488017 L-102.804649,569.488017 L-102.804649,561.58802 L-94.6059371,561.58802 L-94.6059371,560.150209 L-102.804649,560.150209 L-102.804649,552.250211 L-104.142889,552.250211 Z M456.932154,576.794569 L456.932154,584.690583 L448.663743,584.690583 L448.663743,586.130386 L456.932154,586.130386 L456.932154,594.028391 L458.270394,594.028391 L458.270394,586.130386 L466.469106,586.130386 L466.469106,584.690583 L458.270394,584.690583 L458.270394,576.794569 L456.932154,576.794569 Z M427.40126,576.794569 L427.40126,584.690583 L419.132849,584.690583 L419.132849,586.130386 L427.40126,586.130386 L427.40126,594.028391 L428.7395,594.028391 L428.7395,586.130386 L436.940203,586.130386 L436.940203,584.690583 L428.7395,584.690583 L428.7395,576.794569 L427.40126,576.794569 Z M397.870366,576.794569 L397.870366,584.690583 L389.603946,584.690583 L389.603946,586.130386 L397.870366,586.130386 L397.870366,594.028391 L399.208606,594.028391 L399.208606,586.130386 L407.409309,586.130386 L407.409309,584.690583 L399.208606,584.690583 L399.208606,576.794569 L397.870366,576.794569 Z M368.339471,576.794569 L368.339471,584.690583 L360.073051,584.690583 L360.073051,586.130386 L368.339471,586.130386 L368.339471,594.028391 L369.677711,594.028391 L369.677711,586.130386 L377.878414,586.130386 L377.878414,584.690583 L369.677711,584.690583 L369.677711,576.794569 L368.339471,576.794569 Z M338.808577,576.794569 L338.808577,584.690583 L330.544149,584.690583 L330.544149,586.130386 L338.808577,586.130386 L338.808577,594.028391 L340.148809,594.028391 L340.148809,586.130386 L348.34752,586.130386 L348.34752,584.690583 L340.148809,584.690583 L340.148809,576.794569 L338.808577,576.794569 Z M309.281666,576.794569 L309.281666,584.690583 L301.013254,584.690583 L301.013254,586.130386 L309.281666,586.130386 L309.281666,594.028391 L310.617914,594.028391 L310.617914,586.130386 L318.818617,586.130386 L318.818617,584.690583 L310.617914,584.690583 L310.617914,576.794569 L309.281666,576.794569 Z M279.74878,576.794569 L279.74878,584.690583 L271.48236,584.690583 L271.48236,586.130386 L279.74878,586.130386 L279.74878,594.028391 L281.08702,594.028391 L281.08702,586.130386 L289.287723,586.130386 L289.287723,584.690583 L281.08702,584.690583 L281.08702,576.794569 L279.74878,576.794569 Z M250.217886,576.794569 L250.217886,584.690583 L241.953457,584.690583 L241.953457,586.130386 L250.217886,586.130386 L250.217886,594.028391 L251.558117,594.028391 L251.558117,586.130386 L259.756829,586.130386 L259.756829,584.690583 L251.558117,584.690583 L251.558117,576.794569 L250.217886,576.794569 Z M220.690974,576.794569 L220.690974,584.690583 L212.422563,584.690583 L212.422563,586.130386 L220.690974,586.130386 L220.690974,594.028391 L222.027223,594.028391 L222.027223,586.130386 L230.227926,586.130386 L230.227926,584.690583 L222.027223,584.690583 L222.027223,576.794569 L220.690974,576.794569 Z M132.100283,576.794569 L132.100283,584.690583 L123.831871,584.690583 L123.831871,586.130386 L132.100283,586.130386 L132.100283,594.028391 L133.436531,594.028391 L133.436531,586.130386 L141.635243,586.130386 L141.635243,584.690583 L133.436531,584.690583 L133.436531,576.794569 L132.100283,576.794569 Z M102.567397,576.794569 L102.567397,584.690583 L94.3009771,584.690583 L94.3009771,586.130386 L102.567397,586.130386 L102.567397,594.028391 L103.907629,594.028391 L103.907629,586.130386 L112.10634,586.130386 L112.10634,584.690583 L103.907629,584.690583 L103.907629,576.794569 L102.567397,576.794569 Z M-15.5521971,576.794569 L-15.5521971,584.690583 L-23.8186171,584.690583 L-23.8186171,586.130386 L-15.5521971,586.130386 L-15.5521971,594.028391 L-14.2119657,594.028391 L-14.2119657,586.130386 L-6.01524571,586.130386 L-6.01524571,584.690583 L-14.2119657,584.690583 L-14.2119657,576.794569 L-15.5521971,576.794569 Z M-45.0811,576.794569 L-45.0811,584.690583 L-53.34752,584.690583 L-53.34752,586.130386 L-45.0811,586.130386 L-45.0811,594.028391 L-43.74286,594.028391 L-43.74286,586.130386 L-35.54614,586.130386 L-35.54614,584.690583 L-43.74286,584.690583 L-43.74286,576.794569 L-45.0811,576.794569 Z M486.461057,601.334943 L486.461057,609.23494 L478.194637,609.23494 L478.194637,610.672751 L486.461057,610.672751 L486.461057,618.570757 L487.797306,618.570757 L487.797306,610.672751 L496,610.672751 L496,609.23494 L487.797306,609.23494 L487.797306,601.334943 L486.461057,601.334943 Z M456.932154,601.334943 L456.932154,609.23494 L448.663743,609.23494 L448.663743,610.672751 L456.932154,610.672751 L456.932154,618.570757 L458.270394,618.570757 L458.270394,610.672751 L466.469106,610.672751 L466.469106,609.23494 L458.270394,609.23494 L458.270394,601.334943 L456.932154,601.334943 Z M397.870366,601.334943 L397.870366,609.23494 L389.603946,609.23494 L389.603946,610.672751 L397.870366,610.672751 L397.870366,618.570757 L399.208606,618.570757 L399.208606,610.672751 L407.409309,610.672751 L407.409309,609.23494 L399.208606,609.23494 L399.208606,601.334943 L397.870366,601.334943 Z M368.339471,601.334943 L368.339471,609.23494 L360.073051,609.23494 L360.073051,610.672751 L368.339471,610.672751 L368.339471,618.570757 L369.677711,618.570757 L369.677711,610.672751 L377.878414,610.672751 L377.878414,609.23494 L369.677711,609.23494 L369.677711,601.334943 L368.339471,601.334943 Z M338.808577,601.334943 L338.808577,609.23494 L330.544149,609.23494 L330.544149,610.672751 L338.808577,610.672751 L338.808577,618.570757 L340.148809,618.570757 L340.148809,610.672751 L348.34752,610.672751 L348.34752,609.23494 L340.148809,609.23494 L340.148809,601.334943 L338.808577,601.334943 Z M279.74878,601.334943 L279.74878,609.23494 L271.48236,609.23494 L271.48236,610.672751 L279.74878,610.672751 L279.74878,618.570757 L281.08702,618.570757 L281.08702,610.672751 L289.287723,610.672751 L289.287723,609.23494 L281.08702,609.23494 L281.08702,601.334943 L279.74878,601.334943 Z M250.217886,601.334943 L250.217886,609.23494 L241.953457,609.23494 L241.953457,610.672751 L250.217886,610.672751 L250.217886,618.570757 L251.558117,618.570757 L251.558117,610.672751 L259.756829,610.672751 L259.756829,609.23494 L251.558117,609.23494 L251.558117,601.334943 L250.217886,601.334943 Z M220.690974,601.334943 L220.690974,609.23494 L212.422563,609.23494 L212.422563,610.672751 L220.690974,610.672751 L220.690974,618.570757 L222.027223,618.570757 L222.027223,610.672751 L230.227926,610.672751 L230.227926,609.23494 L222.027223,609.23494 L222.027223,601.334943 L220.690974,601.334943 Z M191.158089,601.334943 L191.158089,609.23494 L182.89366,609.23494 L182.89366,610.672751 L191.158089,610.672751 L191.158089,618.570757 L192.49832,618.570757 L192.49832,610.672751 L200.697031,610.672751 L200.697031,609.23494 L192.49832,609.23494 L192.49832,601.334943 L191.158089,601.334943 Z M161.629186,601.334943 L161.629186,609.23494 L153.360774,609.23494 L153.360774,610.672751 L161.629186,610.672751 L161.629186,618.570757 L162.967426,618.570757 L162.967426,610.672751 L171.166137,610.672751 L171.166137,609.23494 L162.967426,609.23494 L162.967426,601.334943 L161.629186,601.334943 Z M102.567397,601.334943 L102.567397,609.23494 L94.3009771,609.23494 L94.3009771,610.672751 L102.567397,610.672751 L102.567397,618.570757 L103.907629,618.570757 L103.907629,610.672751 L112.10634,610.672751 L112.10634,609.23494 L103.907629,609.23494 L103.907629,601.334943 L102.567397,601.334943 Z M73.0384943,601.334943 L73.0384943,609.23494 L64.7700829,609.23494 L64.7700829,610.672751 L73.0384943,610.672751 L73.0384943,618.570757 L74.3747429,618.570757 L74.3747429,610.672751 L82.5774371,610.672751 L82.5774371,609.23494 L74.3747429,609.23494 L74.3747429,601.334943 L73.0384943,601.334943 Z M13.9786971,601.334943 L13.9786971,609.23494 L5.71028571,609.23494 L5.71028571,610.672751 L13.9786971,610.672751 L13.9786971,618.570757 L15.3149457,618.570757 L15.3149457,610.672751 L23.51764,610.672751 L23.51764,609.23494 L15.3149457,609.23494 L15.3149457,601.334943 L13.9786971,601.334943 Z M486.461057,625.875317 L486.461057,633.777306 L478.194637,633.777306 L478.194637,635.213126 L486.461057,635.213126 L486.461057,643.115114 L487.797306,643.115114 L487.797306,635.213126 L496,635.213126 L496,633.777306 L487.797306,633.777306 L487.797306,625.875317 L486.461057,625.875317 Z M456.932154,625.875317 L456.932154,633.777306 L448.663743,633.777306 L448.663743,635.213126 L456.932154,635.213126 L456.932154,643.115114 L458.270394,643.115114 L458.270394,635.213126 L466.469106,635.213126 L466.469106,633.777306 L458.270394,633.777306 L458.270394,625.875317 L456.932154,625.875317 Z M427.40126,625.875317 L427.40126,633.777306 L419.132849,633.777306 L419.132849,635.213126 L427.40126,635.213126 L427.40126,643.115114 L428.7395,643.115114 L428.7395,635.213126 L436.940203,635.213126 L436.940203,633.777306 L428.7395,633.777306 L428.7395,625.875317 L427.40126,625.875317 Z M397.870366,625.875317 L397.870366,633.777306 L389.603946,633.777306 L389.603946,635.213126 L397.870366,635.213126 L397.870366,643.115114 L399.208606,643.115114 L399.208606,635.213126 L407.409309,635.213126 L407.409309,633.777306 L399.208606,633.777306 L399.208606,625.875317 L397.870366,625.875317 Z M368.339471,625.875317 L368.339471,633.777306 L360.073051,633.777306 L360.073051,635.213126 L368.339471,635.213126 L368.339471,643.115114 L369.677711,643.115114 L369.677711,635.213126 L377.878414,635.213126 L377.878414,633.777306 L369.677711,633.777306 L369.677711,625.875317 L368.339471,625.875317 Z M338.808577,625.875317 L338.808577,633.777306 L330.544149,633.777306 L330.544149,635.213126 L338.808577,635.213126 L338.808577,643.115114 L340.148809,643.115114 L340.148809,635.213126 L348.34752,635.213126 L348.34752,633.777306 L340.148809,633.777306 L340.148809,625.875317 L338.808577,625.875317 Z M309.281666,625.875317 L309.281666,633.777306 L301.013254,633.777306 L301.013254,635.213126 L309.281666,635.213126 L309.281666,643.115114 L310.617914,643.115114 L310.617914,635.213126 L318.818617,635.213126 L318.818617,633.777306 L310.617914,633.777306 L310.617914,625.875317 L309.281666,625.875317 Z M279.74878,625.875317 L279.74878,633.777306 L271.48236,633.777306 L271.48236,635.213126 L279.74878,635.213126 L279.74878,643.115114 L281.08702,643.115114 L281.08702,635.213126 L289.287723,635.213126 L289.287723,633.777306 L281.08702,633.777306 L281.08702,625.875317 L279.74878,625.875317 Z M220.690974,625.875317 L220.690974,633.777306 L212.422563,633.777306 L212.422563,635.213126 L220.690974,635.213126 L220.690974,643.115114 L222.027223,643.115114 L222.027223,635.213126 L230.227926,635.213126 L230.227926,633.777306 L222.027223,633.777306 L222.027223,625.875317 L220.690974,625.875317 Z M191.158089,625.875317 L191.158089,633.777306 L182.89366,633.777306 L182.89366,635.213126 L191.158089,635.213126 L191.158089,643.115114 L192.49832,643.115114 L192.49832,635.213126 L200.697031,635.213126 L200.697031,633.777306 L192.49832,633.777306 L192.49832,625.875317 L191.158089,625.875317 Z M132.100283,625.875317 L132.100283,633.777306 L123.831871,633.777306 L123.831871,635.213126 L132.100283,635.213126 L132.100283,643.115114 L133.436531,643.115114 L133.436531,635.213126 L141.635243,635.213126 L141.635243,633.777306 L133.436531,633.777306 L133.436531,625.875317 L132.100283,625.875317 Z M-45.0811,625.875317 L-45.0811,633.777306 L-53.34752,633.777306 L-53.34752,635.213126 L-45.0811,635.213126 L-45.0811,643.115114 L-43.74286,643.115114 L-43.74286,635.213126 L-35.54614,635.213126 L-35.54614,633.777306 L-43.74286,633.777306 L-43.74286,625.875317 L-45.0811,625.875317 Z M486.461057,650.419674 L486.461057,658.315689 L478.194637,658.315689 L478.194637,659.757483 L486.461057,659.757483 L486.461057,667.653497 L487.797306,667.653497 L487.797306,659.757483 L496,659.757483 L496,658.315689 L487.797306,658.315689 L487.797306,650.419674 L486.461057,650.419674 Z M456.932154,650.419674 L456.932154,658.315689 L448.663743,658.315689 L448.663743,659.757483 L456.932154,659.757483 L456.932154,667.653497 L458.270394,667.653497 L458.270394,659.757483 L466.469106,659.757483 L466.469106,658.315689 L458.270394,658.315689 L458.270394,650.419674 L456.932154,650.419674 Z M427.40126,650.419674 L427.40126,658.315689 L419.132849,658.315689 L419.132849,659.757483 L427.40126,659.757483 L427.40126,667.653497 L428.7395,667.653497 L428.7395,659.757483 L436.940203,659.757483 L436.940203,658.315689 L428.7395,658.315689 L428.7395,650.419674 L427.40126,650.419674 Z M397.870366,650.419674 L397.870366,658.315689 L389.603946,658.315689 L389.603946,659.757483 L397.870366,659.757483 L397.870366,667.653497 L399.208606,667.653497 L399.208606,659.757483 L407.409309,659.757483 L407.409309,658.315689 L399.208606,658.315689 L399.208606,650.419674 L397.870366,650.419674 Z M368.339471,650.419674 L368.339471,658.315689 L360.073051,658.315689 L360.073051,659.757483 L368.339471,659.757483 L368.339471,667.653497 L369.677711,667.653497 L369.677711,659.757483 L377.878414,659.757483 L377.878414,658.315689 L369.677711,658.315689 L369.677711,650.419674 L368.339471,650.419674 Z M338.808577,650.419674 L338.808577,658.315689 L330.544149,658.315689 L330.544149,659.757483 L338.808577,659.757483 L338.808577,667.653497 L340.148809,667.653497 L340.148809,659.757483 L348.34752,659.757483 L348.34752,658.315689 L340.148809,658.315689 L340.148809,650.419674 L338.808577,650.419674 Z M309.281666,650.419674 L309.281666,658.315689 L301.013254,658.315689 L301.013254,659.757483 L309.281666,659.757483 L309.281666,667.653497 L310.617914,667.653497 L310.617914,659.757483 L318.818617,659.757483 L318.818617,658.315689 L310.617914,658.315689 L310.617914,650.419674 L309.281666,650.419674 Z M250.217886,650.419674 L250.217886,658.315689 L241.953457,658.315689 L241.953457,659.757483 L250.217886,659.757483 L250.217886,667.653497 L251.558117,667.653497 L251.558117,659.757483 L259.756829,659.757483 L259.756829,658.315689 L251.558117,658.315689 L251.558117,650.419674 L250.217886,650.419674 Z M161.629186,650.419674 L161.629186,658.315689 L153.360774,658.315689 L153.360774,659.757483 L161.629186,659.757483 L161.629186,667.653497 L162.967426,667.653497 L162.967426,659.757483 L171.166137,659.757483 L171.166137,658.315689 L162.967426,658.315689 L162.967426,650.419674 L161.629186,650.419674 Z M486.461057,674.96204 L486.461057,682.860046 L478.194637,682.860046 L478.194637,684.299849 L486.461057,684.299849 L486.461057,692.195863 L487.797306,692.195863 L487.797306,684.299849 L496,684.299849 L496,682.860046 L487.797306,682.860046 L487.797306,674.96204 L486.461057,674.96204 Z M456.932154,674.96204 L456.932154,682.860046 L448.663743,682.860046 L448.663743,684.299849 L456.932154,684.299849 L456.932154,692.195863 L458.270394,692.195863 L458.270394,684.299849 L466.469106,684.299849 L466.469106,682.860046 L458.270394,682.860046 L458.270394,674.96204 L456.932154,674.96204 Z M397.870366,674.96204 L397.870366,682.860046 L389.603946,682.860046 L389.603946,684.299849 L397.870366,684.299849 L397.870366,692.195863 L399.208606,692.195863 L399.208606,684.299849 L407.409309,684.299849 L407.409309,682.860046 L399.208606,682.860046 L399.208606,674.96204 L397.870366,674.96204 Z M368.339471,674.96204 L368.339471,682.860046 L360.073051,682.860046 L360.073051,684.299849 L368.339471,684.299849 L368.339471,692.195863 L369.677711,692.195863 L369.677711,684.299849 L377.878414,684.299849 L377.878414,682.860046 L369.677711,682.860046 L369.677711,674.96204 L368.339471,674.96204 Z M309.281666,674.96204 L309.281666,682.860046 L301.013254,682.860046 L301.013254,684.299849 L309.281666,684.299849 L309.281666,692.195863 L310.617914,692.195863 L310.617914,684.299849 L318.818617,684.299849 L318.818617,682.860046 L310.617914,682.860046 L310.617914,674.96204 L309.281666,674.96204 Z M250.217886,674.96204 L250.217886,682.860046 L241.953457,682.860046 L241.953457,684.299849 L250.217886,684.299849 L250.217886,692.195863 L251.558117,692.195863 L251.558117,684.299849 L259.756829,684.299849 L259.756829,682.860046 L251.558117,682.860046 L251.558117,674.96204 L250.217886,674.96204 Z" id="Page-1" transform="translate(147.500000, 548.597931) scale(-1, 1) translate(-147.500000, -548.597931) "></path>
            </g>
        </g>
    </g>
</svg>