<?xml version="1.0" encoding="UTF-8" standalone="no"?>
<svg width="59px" height="60px" viewBox="0 0 59 60" version="1.1" xmlns="http://www.w3.org/2000/svg" xmlns:xlink="http://www.w3.org/1999/xlink">
    <!-- Generator: Sketch 39.1 (31720) - http://www.bohemiancoding.com/sketch -->
    <title>Group</title>
    <desc>Created with Sketch.</desc>
    <defs></defs>
    <g id="Symbols" stroke="none" stroke-width="1" fill="none" fill-rule="evenodd">
        <g id="Footer-D" transform="translate(-41.000000, -69.000000)" fill="#005F9E">
            <g id="Group" transform="translate(41.000000, 69.000000)">
                <path d="M38.0264236,41.2175096 C37.8670486,42.0122397 37.5482986,42.6511404 37.3889236,43.1279785 C37.2295486,43.4458705 37.2295486,43.6079331 37.2295486,43.7668792 C36.7482986,44.2437172 36.4295486,44.5616093 36.2701736,44.5616093 C33.8732986,46.6341408 31.9576736,47.746763 29.0826736,48.7035557 C27.9639236,49.0214478 25.5701736,49.4982859 22.6951736,49.4982859 L18.2232986,51.8887094 C23.6545486,53.1633942 28.1232986,52.0476555 29.8826736,51.4118714 C33.2357986,50.4550786 35.4701736,49.1803938 38.1857986,46.7930868 C38.8264236,46.4720782 41.6982986,43.9258252 43.6170486,39.9428248 C43.9357986,39.3070407 44.2545486,38.5091939 44.5732986,37.7144638 L38.0264236,41.2175096 Z" id="Fill-11"></path>
                <path d="M22.2161111,9.52180195 L22.6942361,9.52180195 L23.4942361,9.52180195 C23.0161111,9.68074798 22.5348611,9.83969401 22.0567361,9.99864003 L26.0504861,12.2301176 C29.2442361,12.0711716 32.4379861,13.5048024 34.5129861,15.7331633 C34.0348611,15.7331633 33.5567361,15.8921094 32.9161111,15.8921094 L39.7848611,19.5572177 L39.7848611,19.3982717 C40.1036111,19.5572177 40.2629861,19.7161638 40.4223611,20.0340558 L45.0536111,22.4244794 C44.8942361,22.2624168 44.8942361,22.1034707 44.8942361,21.9445247 C44.8942361,21.7855787 44.7348611,21.7855787 44.7348611,21.6266327 C44.7348611,21.4676866 44.5754861,21.3087406 44.5754861,21.1497946 C43.2973611,17.4846862 40.7411111,14.2995325 37.5473611,11.7501629 C37.5473611,11.5912169 37.3879861,11.5912169 37.2286111,11.4322709 C32.4379861,7.61133305 27.4848611,6.81348633 25.0911111,6.6545403 L24.6129861,6.6545403 C23.1754861,6.49559428 21.5786111,6.49559428 20.1411111,6.6545403 C20.1411111,6.81348633 19.9817361,6.81348633 19.8192361,6.81348633 C19.1817361,6.81348633 18.7036111,6.97243236 18.2223611,7.13449497 C17.9036111,7.13449497 17.4254861,7.293441 17.1067361,7.293441 L21.2567361,9.68074798 C21.5786111,9.52180195 21.8973611,9.52180195 22.2161111,9.52180195" id="Fill-12"></path>
                <path d="M4.48892361,36.9169287 C3.85142361,35.3243519 3.37017361,33.413883 3.37017361,32.6160363 C3.05142361,30.7055674 3.05142361,30.7055674 3.05142361,28.9540445 C3.05142361,28.3151438 3.21079861,27.5204137 3.21079861,26.881513 C3.52954861,25.4509987 3.69204861,23.8553053 4.64829861,21.7858904 L4.64829861,15.733475 C4.01079861,16.6902677 3.21079861,17.8028899 2.73267361,19.0775747 C0.976423611,22.2627284 0.657673611,24.653152 0.335798611,26.4046749 C0.176423611,27.2025216 0.0170486111,28.1561978 0.176423611,28.9540445 C0.176423611,30.8645134 0.176423611,31.0234594 0.335798611,32.9339283 C0.495173611,34.2086131 1.13579861,36.7579827 2.09204861,38.6684516 C2.73267361,40.2610285 3.37017361,41.3767672 4.17017361,42.492506 C4.17017361,42.651452 4.32954861,42.651452 4.32954861,42.8103981 C4.48892361,42.9693441 4.48892361,43.1282901 4.64829861,43.2872362 L4.64829861,36.5990367 C4.64829861,36.7579827 4.48892361,36.9169287 4.48892361,36.9169287" id="Fill-13"></path>
                <path d="M38.6654861,26.2457289 C38.5061111,26.7225669 38.0248611,27.040459 37.7061111,27.5204137 C38.8248611,29.5898286 39.7842361,31.6623601 40.2623611,33.572829 C40.5811111,33.254937 40.7404861,33.0959909 40.8998611,32.6160363 C42.8186111,29.7487746 43.1373611,26.0867828 41.8592361,22.424791 C41.6998611,22.2627284 41.6998611,22.2627284 41.6998611,22.1037824 C41.5404861,21.7858904 41.3811111,21.4679983 41.2217361,21.1501062 C41.2217361,20.9911602 41.0592361,20.8290976 40.8998611,20.6701516 C40.8998611,20.5112056 40.7404861,20.1933135 40.4217361,20.0343675 L39.7842361,19.5575294 C40.2623611,21.9448364 39.9436111,24.1763139 38.6654861,26.2457289" id="Fill-14"></path>
                <path d="M20.6192361,9.68168296 L20.4598611,9.68168296 C19.5004861,9.84062898 18.5442361,9.99957501 17.5848611,10.3174671 C18.3848611,10.4764131 19.1817361,10.7974217 19.9817361,11.1153138 C20.6192361,10.6384757 21.2567361,10.3174671 22.0567361,9.99957501 L21.2567361,9.68168296 L20.6192361,9.68168296 Z" id="Fill-15"></path>
                <path d="M44.5745486,37.7135288 L58.9464236,29.9095906 L45.0526736,22.4235444 C46.9714236,28.4759598 46.1714236,33.7305284 44.5745486,37.7135288" id="Fill-16"></path>
                <path d="M25.0904861,12.2298059 L24.9311111,12.2298059 C24.4529861,12.3887519 23.8123611,12.547698 23.3342361,12.706644 C25.2498611,13.8223828 27.3248611,15.0970676 29.2436111,16.8485905 C30.5217361,16.3717524 31.7967361,16.2128063 32.9154861,15.8917977 L26.0498611,12.2298059 L25.0904861,12.2298059 Z" id="Fill-17"></path>
                <path d="M31.7982986,41.5357133 C23.8139236,42.651452 15.5076736,38.8273976 10.5576736,32.7749823 C8.64204861,35.0064598 7.36392361,37.2348208 6.88579861,39.1452897 C6.72642361,39.9431364 6.72642361,40.5789205 6.88579861,41.2178212 C7.20454861,41.6946593 7.52329861,42.0125514 7.84204861,42.492506 C9.12017361,43.9261368 12.3139236,47.2702366 17.5857986,48.7038674 C19.3420486,49.1807055 21.0982986,49.4985975 22.6951736,49.4985975 L38.0264236,41.2178212 C38.0264236,40.5789205 38.1857986,39.9431364 38.1857986,39.3073523 C36.2701736,40.4199745 34.1951736,41.2178212 31.7982986,41.5357133" id="Fill-18"></path>
                <path d="M10.8773611,27.8386174 C12.7929861,26.0870945 14.8711111,24.4945176 17.1054861,22.9019408 C16.9461111,22.5840487 16.7867361,22.2630401 16.6273611,21.945148 C15.6679861,19.0778864 15.9867361,16.2106247 17.4242361,13.8233178 C17.4242361,13.6643717 17.5836111,13.5054257 17.5836111,13.3433631 C15.9867361,12.866525 14.3898611,12.707579 13.1117361,13.025471 C12.3148611,13.6643717 11.5148611,14.6180479 11.0367361,15.5748406 C9.91798611,17.3263635 9.28048611,19.3957784 9.28048611,21.46831 C9.28048611,22.9019408 9.59923611,24.4945176 10.0804861,25.9281485 C10.3992361,26.7228786 10.7179861,27.2028333 10.8773611,27.8386174" id="Fill-19"></path>
                <path d="M19.5011111,20.8303442 C19.5011111,20.9892903 19.5011111,21.1482363 19.6604861,21.3071823 C21.5761111,20.0356141 23.8136111,18.9198753 25.8886111,17.9630826 C24.1323611,16.5294518 22.3761111,15.413713 20.4604861,14.4600368 C20.2979861,14.7779289 20.1386111,15.0958209 19.9792361,15.413713 C18.8636111,17.0062898 18.7042361,18.9198753 19.5011111,20.8303442" id="Fill-20"></path>
                <path d="M30.9998611,27.6793597 C32.1186111,27.5204137 33.0748611,27.3614676 33.8748611,26.881513 C32.4373611,24.494206 30.5217361,22.2627284 28.4436111,20.1933135 C28.1248611,20.3522595 27.8061111,20.5112056 27.3279861,20.6701516 C25.2498611,21.4679983 23.1748611,22.5837371 21.0967361,23.8553053 C23.4936111,26.5636209 27.3279861,28.3151438 30.9998611,27.6793597" id="Fill-21"></path>
                <path d="M11.3561111,9.84094064 C12.9529861,8.8841479 14.3904861,8.08941776 17.1061111,7.29157104 L4.64986111,0.603371582 L4.64986111,15.73441 C7.52486111,11.9103556 10.8779861,9.99988667 11.3561111,9.84094064" id="Fill-22"></path>
                <path d="M36.1101736,24.6528403 C37.2289236,23.0602635 37.2289236,21.1497946 36.5882986,19.0772631 C36.5882986,18.918317 36.4289236,18.759371 36.4289236,18.600425 C34.9914236,18.600425 33.3945486,18.759371 31.6382986,19.2362091 C33.3945486,20.9908486 34.8320486,22.9013175 36.1101736,24.8117864 L36.1101736,24.6528403 Z" id="Fill-23"></path>
                <path d="M31.3192361,38.5098173 C33.8754861,38.1919252 35.9504861,37.3940785 37.8661111,36.1193937 C37.3879861,33.8910327 36.5879861,31.6595552 35.3129861,29.4311942 C34.1942361,30.0669783 32.9161111,30.546933 31.4786111,30.705879 C26.6879861,31.3416631 21.5786111,29.1133022 18.7036111,25.4481938 C16.4661111,27.0407706 14.3911111,28.7954101 12.6348611,30.546933 C16.7848611,36.1193937 24.2911111,39.46661 31.3192361,38.5098173" id="Fill-24"></path>
                <path d="M8.80111111,30.2277943 C8.16361111,29.1120555 7.68236111,28.1583794 7.36361111,27.0426406 C6.24486111,23.8574869 6.08548611,20.8312792 6.72611111,17.9640176 C6.24486111,18.5998017 5.76673611,19.3976484 5.28861111,20.3513246 C5.12923611,20.8312792 4.80736111,21.3081173 4.64798611,21.7849554 L4.64798611,36.5981017 C5.44798611,34.5286868 6.88548611,32.2972092 8.80111111,30.2277943" id="Fill-25"></path>
                <path d="M42.3098611,36.279898 C41.8945517,36.5977901 41.4792422,36.9156821 41.0598611,37.2366907 L41.0598611,38.3493129 C41.4792422,37.7135288 41.8945517,37.0746281 42.3098611,36.279898" id="Fill-26"></path>
                <path d="M5.60704861,44.4026633 C5.28829861,44.0847712 4.96954861,43.6048165 4.64767361,43.2869245 L4.64767361,59.2158096 L18.2226736,51.8887094 C17.7445486,51.8887094 17.2664236,51.7297634 16.6257986,51.5708174 C10.5570486,49.8192945 6.88517361,45.9952401 5.60704861,44.4026633" id="Fill-27"></path>
            </g>
        </g>
    </g>
</svg>