<?xml version="1.0" encoding="UTF-8" standalone="no"?>
<svg width="203px" height="37px" viewBox="0 0 203 37" version="1.1" xmlns="http://www.w3.org/2000/svg" xmlns:xlink="http://www.w3.org/1999/xlink">
    <!-- Generator: Sketch 39.1 (31720) - http://www.bohemiancoding.com/sketch -->
    <title>Trimble Logo - Light</title>
    <desc>Created with Sketch.</desc>
    <defs></defs>
    <g id="Symbols" stroke="none" stroke-width="1" fill="none" fill-rule="evenodd">
        <g id="Menu-T" transform="translate(-114.000000, -32.000000)">
            <g id="Trimble-Logo-Light" transform="translate(114.000000, 33.000000)">
                <path d="M113.5,0 L113.5,35" id="Line" stroke-opacity="0.298403533" stroke="#FFFFFF" stroke-width="1" stroke-linecap="square" opacity="0.344181437"></path>
                <text id="Developer" font-family="OpenSans, Open Sans" font-size="16" font-weight="normal" fill="#FFFFFF">
                    <tspan x="127" y="24">Developer</tspan>
                </text>
                <g id="Group" stroke-width="1" fill-rule="evenodd" transform="translate(0.000000, 6.000000)" fill="#FFFFFF">
                    <polygon id="Fill-1" points="23.598375 2.59836237 36.629625 2.59836237 36.629625 6.16623318 32.478375 6.16623318 32.478375 21.0735005 27.750875 21.0735005 27.750875 6.16623318 23.598375 6.16623318"></polygon>
                    <path d="M34.71375,8.07745006 L38.86625,8.07745006 L38.86625,10.0521207 L38.93,10.0521207 C39.44125,8.39534212 41.29375,7.75831138 42.955,7.75831138 L42.955,11.9632129 C42.38,11.7724777 41.86875,11.6453209 41.23,11.6453209 C39.82375,11.6453209 39.3775,11.9632129 38.93,12.6638221 L38.93,21.0736252 L34.71375,21.0736252 L34.71375,8.07745006 L34.71375,8.07745006 Z" id="Fill-2"></path>
                    <polygon id="Fill-4" points="44.04 21.0731265 48.25625 21.0731265 48.25625 8.07695141 44.04 8.07695141"></polygon>
                    <path d="M49.72575,8.07745006 L53.87825,8.07745006 L53.87825,9.79780705 L53.942,9.79780705 C54.83575,8.46016716 56.17825,7.75831138 57.647,7.75831138 C58.9245,7.75831138 60.202,8.52374557 60.26575,9.79780705 L60.3295,9.79780705 C61.2245,8.46016716 62.56575,7.75831138 64.0345,7.75831138 C65.7595,7.75831138 66.97325,8.65090239 66.97325,10.4984162 L66.97325,21.0736252 L62.757,21.0736252 L62.757,11.8360561 C62.757,11.1990254 62.56575,10.6891514 61.7995,10.6891514 C61.352,10.6891514 60.96825,10.8811333 60.71325,11.2626038 L60.45825,11.5817425 L60.45825,21.0736252 L56.242,21.0736252 L56.242,11.8360561 C56.242,11.1990254 55.98575,10.6891514 55.2195,10.6891514 C54.772,10.6891514 54.45325,10.8811333 54.13325,11.2626038 L53.87825,11.5817425 L53.87825,21.0736252 L49.72575,21.0736252 L49.72575,8.07745006 Z" id="Fill-6"></path>
                    <path d="M72.595125,16.8692223 C72.531375,17.9525485 73.170125,18.5895793 74.000125,18.5895793 C75.150125,18.5895793 75.341375,17.3790962 75.341375,15.0217085 L75.341375,14.0019606 C75.341375,11.4538377 75.341375,10.0526194 74.000125,10.0526194 C73.488875,10.0526194 73.106375,10.3705114 72.850125,10.6260717 L72.595125,10.8168069 L72.595125,16.8692223 Z M68.378875,2.59898569 L72.595125,2.59898569 L72.595125,8.77855787 L72.658875,8.77855787 C73.233875,8.20510554 74.383875,7.75881003 75.213875,7.75881003 C78.088875,7.75881003 79.686375,10.6260717 79.686375,14.3846777 C79.686375,17.3790962 78.407625,21.2012806 74.895125,21.2012806 C73.233875,21.2012806 72.211375,20.4370931 71.381375,19.1630316 L70.615125,21.0741238 L68.378875,21.0741238 L68.378875,2.59898569 Z" id="Fill-7"></path>
                    <polygon id="Fill-8" points="80.77125 21.0731265 84.9875 21.0731265 84.9875 2.59798838 80.77125 2.59798838"></polygon>
                    <path d="M93.420375,12.6006177 C93.420375,11.3901346 93.292875,9.98891628 91.822875,9.98891628 C90.672875,9.98891628 90.290375,11.3901346 90.290375,12.6006177 L93.420375,12.6006177 Z M90.290375,15.0851622 C90.290375,16.2320669 90.481625,18.2067375 92.206625,18.2067375 C93.165375,18.2067375 94.059125,17.4425499 94.314125,16.4228021 L97.125375,17.4425499 C96.934125,18.0160023 95.656625,21.0104207 91.886625,21.0104207 C87.862875,21.0104207 86.074125,17.760442 86.074125,14.1302394 C86.074125,10.4339652 87.990375,7.37596827 91.886625,7.37596827 C95.911625,7.37596827 97.316625,10.8166822 97.316625,14.1938178 L97.316625,15.0851622 L90.290375,15.0851622 Z" id="Fill-9"></path>
                    <polygon id="Fill-10" points="44.04 6.29301601 48.25625 6.29301601 48.25625 2.53440997 44.04 2.53440997"></polygon>
                    <path d="M15.166125,16.4870038 C15.102375,16.8048959 14.974875,17.0604562 14.911125,17.2511914 C14.847375,17.3783482 14.847375,17.4431733 14.847375,17.5067517 C14.654875,17.6974869 14.527375,17.8246437 14.463625,17.8246437 C13.504875,18.6536563 12.738625,19.0987052 11.588625,19.4814223 C11.141125,19.6085791 10.183625,19.7993144 9.033625,19.7993144 L7.244875,20.7554838 C9.417375,21.2653577 11.204875,20.8190622 11.908625,20.5647485 C13.249875,20.1820314 14.143625,19.6721575 15.229875,18.7172347 C15.486125,18.5888313 16.634875,17.5703301 17.402375,15.9771299 C17.529875,15.7228163 17.657375,15.4036776 17.784875,15.0857855 L15.166125,16.4870038 Z" id="Fill-11"></path>
                    <path d="M8.842,3.80872078 L9.03325,3.80872078 L9.35325,3.80872078 C9.162,3.87229919 8.9695,3.9358776 8.77825,3.99945601 L10.37575,4.89204703 C11.65325,4.82846862 12.93075,5.40192095 13.76075,6.29326534 C13.5695,6.29326534 13.37825,6.35684375 13.122,6.35684375 L15.8695,7.82288709 L15.8695,7.75930868 C15.997,7.82288709 16.06075,7.88646551 16.1245,8.01362233 L17.977,8.96979176 C17.91325,8.90496671 17.91325,8.8413883 17.91325,8.77780989 C17.91325,8.71423148 17.8495,8.71423148 17.8495,8.65065307 C17.8495,8.58707466 17.78575,8.52349625 17.78575,8.45991784 C17.2745,6.99387449 16.252,5.719813 14.9745,4.70006517 C14.9745,4.63648675 14.91075,4.63648675 14.847,4.57290834 C12.93075,3.04453322 10.9495,2.72539453 9.992,2.66181612 L9.80075,2.66181612 C9.22575,2.59823771 8.587,2.59823771 8.012,2.66181612 C8.012,2.72539453 7.94825,2.72539453 7.88325,2.72539453 C7.62825,2.72539453 7.437,2.78897294 7.2445,2.85379799 C7.117,2.85379799 6.92575,2.9173764 6.79825,2.9173764 L8.45825,3.87229919 C8.587,3.80872078 8.7145,3.80872078 8.842,3.80872078" id="Fill-12"></path>
                    <path d="M1.751125,14.7667715 C1.496125,14.1297408 1.303625,13.3655532 1.303625,13.0464145 C1.176125,12.2822269 1.176125,12.2822269 1.176125,11.5816178 C1.176125,11.3260575 1.239875,11.0081655 1.239875,10.7526052 C1.367375,10.1803995 1.432375,9.54212211 1.814875,8.71435614 L1.814875,6.29339 C1.559875,6.6761071 1.239875,7.12115597 1.048625,7.63102989 C0.346125,8.90509137 0.218625,9.8612608 0.089875,10.56187 C0.026125,10.8810086 -0.037625,11.2624791 0.026125,11.5816178 C0.026125,12.3458054 0.026125,12.4093838 0.089875,13.1735713 C0.153625,13.6834452 0.409875,14.7031931 0.792375,15.4673806 C1.048625,16.1044114 1.303625,16.5507069 1.623625,16.9970024 C1.623625,17.0605808 1.687375,17.0605808 1.687375,17.1241592 C1.751125,17.1877376 1.751125,17.2513161 1.814875,17.3148945 L1.814875,14.6396147 C1.814875,14.7031931 1.751125,14.7667715 1.751125,14.7667715" id="Fill-13"></path>
                    <path d="M15.42175,10.4982915 C15.358,10.6890268 15.1655,10.8161836 15.038,11.0081655 C15.4855,11.8359314 15.86925,12.664944 16.0605,13.4291316 C16.188,13.3019748 16.25175,13.2383964 16.3155,13.0464145 C17.083,11.8995098 17.2105,10.4347131 16.69925,8.96991642 C16.6355,8.90509137 16.6355,8.90509137 16.6355,8.84151296 C16.57175,8.71435614 16.508,8.58719932 16.44425,8.4600425 C16.44425,8.39646409 16.37925,8.33163904 16.3155,8.26806063 C16.3155,8.20448222 16.25175,8.0773254 16.12425,8.01374699 L15.86925,7.82301176 C16.0605,8.77793455 15.933,9.67052557 15.42175,10.4982915" id="Fill-14"></path>
                    <path d="M8.20325,3.87267318 L8.1395,3.87267318 C7.75575,3.93625159 7.37325,3.99983 6.9895,4.12698683 C7.3095,4.19056524 7.62825,4.31896869 7.94825,4.44612551 C8.20325,4.25539028 8.45825,4.12698683 8.77825,3.99983 L8.45825,3.87267318 L8.20325,3.87267318 Z" id="Fill-15"></path>
                    <path d="M17.785375,15.0854115 L23.534125,11.9638362 L17.976625,8.96941776 C18.744125,11.3903839 18.424125,13.4922114 17.785375,15.0854115" id="Fill-16"></path>
                    <path d="M9.99175,4.89192237 L9.928,4.89192237 C9.73675,4.95550078 9.4805,5.01907919 9.28925,5.0826576 C10.0555,5.52895311 10.8855,6.03882703 11.653,6.73943618 C12.16425,6.54870095 12.67425,6.48512254 13.12175,6.35671908 L10.3755,4.89192237 L9.99175,4.89192237 Z" id="Fill-17"></path>
                    <path d="M12.674875,16.6142853 C9.481125,17.0605808 6.158625,15.5309591 4.178625,13.1099929 C3.412375,14.0025839 2.901125,14.8939283 2.709875,15.6581159 C2.646125,15.9772546 2.646125,16.2315682 2.709875,16.4871285 C2.837375,16.6778637 2.964875,16.8050205 3.092375,16.9970024 C3.603625,17.5704547 4.881125,18.9080946 6.989875,19.481547 C7.692375,19.6722822 8.394875,19.799439 9.033625,19.799439 L15.166125,16.4871285 C15.166125,16.2315682 15.229875,15.9772546 15.229875,15.7229409 C14.463625,16.1679898 13.633625,16.4871285 12.674875,16.6142853" id="Fill-18"></path>
                    <path d="M4.3065,11.1354469 C5.07275,10.4348378 5.904,9.79780705 6.79775,9.16077631 C6.734,9.03361949 6.67025,8.90521604 6.6065,8.77805922 C6.22275,7.63115455 6.35025,6.48424989 6.92525,5.5293271 C6.92525,5.46574869 6.989,5.40217028 6.989,5.33734523 C6.35025,5.14661 5.7115,5.08303159 5.20025,5.21018841 C4.8815,5.46574869 4.5615,5.84721915 4.37025,6.22993625 C3.92275,6.9305454 3.66775,7.75831138 3.66775,8.58732398 C3.66775,9.16077631 3.79525,9.79780705 3.98775,10.3712594 C4.11525,10.6891514 4.24275,10.8811333 4.3065,11.1354469" id="Fill-19"></path>
                    <path d="M7.756,8.3321377 C7.756,8.39571611 7.756,8.45929452 7.81975,8.52287293 C8.586,8.01424564 9.481,7.56795013 10.311,7.18523304 C9.6085,6.61178071 8.906,6.1654852 8.13975,5.78401473 C8.07475,5.91117155 8.011,6.03832838 7.94725,6.1654852 C7.501,6.80251594 7.43725,7.56795013 7.756,8.3321377" id="Fill-20"></path>
                    <path d="M12.3555,11.0717439 C12.803,11.0081655 13.1855,10.9445871 13.5055,10.7526052 C12.9305,9.79768239 12.16425,8.90509137 11.333,8.0773254 C11.2055,8.14090381 11.078,8.20448222 10.88675,8.26806063 C10.0555,8.58719932 9.2255,9.03349483 8.39425,9.54212211 C9.353,10.6254484 10.88675,11.3260575 12.3555,11.0717439" id="Fill-21"></path>
                    <path d="M4.498,3.93637626 C5.13675,3.55365916 5.71175,3.23576711 6.798,2.91662842 L1.8155,0.241348633 L1.8155,6.29376399 C2.9655,4.76414223 4.30675,3.99995467 4.498,3.93637626" id="Fill-22"></path>
                    <path d="M14.399625,9.86113614 C14.847125,9.2241054 14.847125,8.45991784 14.590875,7.63090523 C14.590875,7.56732682 14.527125,7.50374841 14.527125,7.44017 C13.952125,7.44017 13.313375,7.50374841 12.610875,7.69448364 C13.313375,8.39633942 13.888375,9.16052699 14.399625,9.92471455 L14.399625,9.86113614 Z" id="Fill-23"></path>
                    <path d="M12.48325,15.4039269 C13.50575,15.2767701 14.33575,14.9576314 15.102,14.4477575 C14.91075,13.5564131 14.59075,12.6638221 14.08075,11.7724777 C13.63325,12.0267913 13.122,12.2187732 12.547,12.2823516 C10.63075,12.5366653 8.587,11.6453209 7.437,10.1792775 C6.542,10.8163083 5.712,11.518164 5.0095,12.2187732 C6.6695,14.4477575 9.672,15.786644 12.48325,15.4039269" id="Fill-24"></path>
                    <path d="M3.476,12.0911177 C3.221,11.6448222 3.0285,11.2633517 2.901,10.8170562 C2.4535,9.54299476 2.38975,8.33251169 2.646,7.18560703 C2.4535,7.43992067 2.26225,7.75905936 2.071,8.14052982 C2.00725,8.33251169 1.8785,8.52324692 1.81475,8.71398215 L1.81475,14.6392407 C2.13475,13.8114747 2.70975,12.9188837 3.476,12.0911177" id="Fill-25"></path>
                    <path d="M16.8795,14.5119592 C16.7133762,14.639116 16.5472524,14.7662728 16.3795,14.8946763 L16.3795,15.3397252 C16.5472524,15.0854115 16.7133762,14.8298513 16.8795,14.5119592" id="Fill-26"></path>
                    <path d="M2.198375,17.7610653 C2.070875,17.6339085 1.943375,17.4419266 1.814625,17.3147698 L1.814625,23.6863238 L7.244625,20.7554838 C7.053375,20.7554838 6.862125,20.6919054 6.605875,20.628327 C4.178375,19.9277178 2.709625,18.398096 2.198375,17.7610653" id="Fill-27"></path>
                    <polygon id="Fill-28" points="97.828125 21.0101714 97.828125 19.7361099 97.380625 19.7361099 97.380625 19.5453747 98.403125 19.5453747 98.403125 19.7361099 98.019375 19.7361099 98.019375 21.0101714"></polygon>
                    <polygon id="Fill-29" points="98.78625 21.0101714 98.595 21.0101714 98.595 19.5453747 98.85 19.5453747 99.2975 20.6922794 99.745 19.5453747 100 19.5453747 100 21.0101714 99.80875 21.0101714 99.80875 19.7361099 99.36125 21.0101714 99.23375 21.0101714 98.78625 19.7361099"></polygon>
                </g>
            </g>
        </g>
    </g>
</svg>