<?xml version="1.0" encoding="utf-8"?>
<!-- Generator: Adobe Illustrator 20.0.0, SVG Export Plug-In . SVG Version: 6.00 Build 0)  -->
<svg version="1.1" id="Layer_1" xmlns="http://www.w3.org/2000/svg" xmlns:xlink="http://www.w3.org/1999/xlink" x="0px" y="0px"
	 viewBox="0 0 203 37" style="enable-background:new 0 0 203 37;" xml:space="preserve">
<style type="text/css">
	.st0{opacity:0.2;fill:none;stroke:#77787D;stroke-linecap:square;enable-background:new    ;}
	.st1{enable-background:new    ;}
	.st2{fill:#77787D;}
	.st3{fill:#005F9E;}
</style>
<title>Trimble Logo - Light</title>
<desc>Created with Sketch.</desc>
<g id="Symbols">
	<g id="NavBar-SignedOut-D" transform="translate(-40.000000, -32.000000)">
		<g id="Trimble-Logo-Dark" transform="translate(40.000000, 33.000000)">
			<path id="Line" class="st0" d="M113.5,0v35"/>
			<g class="st1">
				<path class="st2" d="M137.7,18.2c0,1.9-0.5,3.3-1.5,4.3s-2.5,1.5-4.4,1.5h-3.2V12.6h3.5c1.8,0,3.2,0.5,4.1,1.5
					S137.7,16.4,137.7,18.2z M136.3,18.2c0-1.5-0.4-2.6-1.1-3.4c-0.7-0.8-1.9-1.1-3.3-1.1h-1.9v9.1h1.6c1.6,0,2.8-0.4,3.6-1.2
					S136.3,19.8,136.3,18.2z"/>
				<path class="st2" d="M143.7,24.2c-1.3,0-2.3-0.4-3-1.2c-0.7-0.8-1.1-1.8-1.1-3.2c0-1.4,0.3-2.5,1-3.3s1.6-1.2,2.7-1.2
					c1.1,0,1.9,0.4,2.5,1.1s0.9,1.6,0.9,2.8V20h-5.9c0,1,0.3,1.8,0.8,2.3c0.5,0.5,1.2,0.8,2,0.8c0.9,0,1.8-0.2,2.7-0.6v1.2
					c-0.5,0.2-0.9,0.3-1.3,0.4C144.7,24.1,144.2,24.2,143.7,24.2z M143.3,16.4c-0.7,0-1.2,0.2-1.6,0.7c-0.4,0.4-0.7,1.1-0.7,1.9h4.5
					c0-0.8-0.2-1.4-0.5-1.9C144.5,16.6,144,16.4,143.3,16.4z"/>
				<path class="st2" d="M150.9,24l-3.2-8.6h1.4l1.8,5.1c0.4,1.2,0.7,2,0.7,2.3h0.1c0.1-0.3,0.2-0.8,0.5-1.7s1-2.8,2.1-5.7h1.4
					l-3.2,8.6H150.9z"/>
				<path class="st2" d="M160.6,24.2c-1.3,0-2.3-0.4-3-1.2c-0.7-0.8-1.1-1.8-1.1-3.2c0-1.4,0.3-2.5,1-3.3s1.6-1.2,2.7-1.2
					c1.1,0,1.9,0.4,2.5,1.1s0.9,1.6,0.9,2.8V20h-5.9c0,1,0.3,1.8,0.8,2.3c0.5,0.5,1.2,0.8,2,0.8c0.9,0,1.8-0.2,2.7-0.6v1.2
					c-0.5,0.2-0.9,0.3-1.3,0.4C161.7,24.1,161.2,24.2,160.6,24.2z M160.3,16.4c-0.7,0-1.2,0.2-1.6,0.7c-0.4,0.4-0.7,1.1-0.7,1.9h4.5
					c0-0.8-0.2-1.4-0.5-1.9C161.5,16.6,161,16.4,160.3,16.4z"/>
				<path class="st2" d="M167.3,24H166V11.8h1.3V24z"/>
				<path class="st2" d="M177.4,19.7c0,1.4-0.4,2.5-1.1,3.3s-1.7,1.2-2.9,1.2c-0.8,0-1.4-0.2-2-0.5s-1.1-0.9-1.4-1.5
					c-0.3-0.7-0.5-1.5-0.5-2.4c0-1.4,0.3-2.5,1-3.3c0.7-0.8,1.7-1.2,2.9-1.2c1.2,0,2.1,0.4,2.9,1.2
					C177.1,17.3,177.4,18.4,177.4,19.7z M170.9,19.7c0,1.1,0.2,1.9,0.7,2.5s1.1,0.9,1.9,0.9c0.8,0,1.5-0.3,1.9-0.9
					c0.4-0.6,0.7-1.4,0.7-2.5c0-1.1-0.2-1.9-0.7-2.5c-0.4-0.6-1.1-0.8-1.9-0.8c-0.8,0-1.5,0.3-1.9,0.8
					C171.1,17.8,170.9,18.6,170.9,19.7z"/>
				<path class="st2" d="M183.7,24.2c-0.6,0-1.1-0.1-1.5-0.3s-0.8-0.5-1.2-0.9h-0.1c0.1,0.5,0.1,1,0.1,1.4v3.5h-1.3V15.4h1.1
					l0.2,1.2h0.1c0.3-0.5,0.7-0.8,1.2-1c0.4-0.2,1-0.3,1.5-0.3c1.1,0,2,0.4,2.6,1.2s0.9,1.9,0.9,3.3c0,1.4-0.3,2.5-0.9,3.3
					C185.7,23.8,184.8,24.2,183.7,24.2z M183.5,16.4c-0.9,0-1.5,0.2-1.9,0.7s-0.6,1.3-0.6,2.3v0.3c0,1.2,0.2,2.1,0.6,2.6
					c0.4,0.5,1,0.8,1.9,0.8c0.7,0,1.3-0.3,1.7-0.9c0.4-0.6,0.6-1.4,0.6-2.5c0-1.1-0.2-1.9-0.6-2.5C184.9,16.7,184.3,16.4,183.5,16.4
					z"/>
				<path class="st2" d="M193.1,24.2c-1.3,0-2.3-0.4-3-1.2c-0.7-0.8-1.1-1.8-1.1-3.2c0-1.4,0.3-2.5,1-3.3s1.6-1.2,2.7-1.2
					c1.1,0,1.9,0.4,2.5,1.1s0.9,1.6,0.9,2.8V20h-5.9c0,1,0.3,1.8,0.8,2.3c0.5,0.5,1.2,0.8,2,0.8c0.9,0,1.8-0.2,2.7-0.6v1.2
					c-0.5,0.2-0.9,0.3-1.3,0.4C194.2,24.1,193.7,24.2,193.1,24.2z M192.8,16.4c-0.7,0-1.2,0.2-1.6,0.7c-0.4,0.4-0.7,1.1-0.7,1.9h4.5
					c0-0.8-0.2-1.4-0.5-1.9C194,16.6,193.5,16.4,192.8,16.4z"/>
				<path class="st2" d="M202.4,15.3c0.4,0,0.7,0,1,0.1l-0.2,1.2c-0.4-0.1-0.7-0.1-0.9-0.1c-0.7,0-1.3,0.3-1.8,0.8s-0.7,1.3-0.7,2.1
					V24h-1.3v-8.6h1.1l0.1,1.6h0.1c0.3-0.6,0.7-1,1.1-1.3C201.4,15.4,201.9,15.3,202.4,15.3z"/>
			</g>
			<g id="Group" transform="translate(0.000000, 6.000000)">
				<polygon id="Fill-1" class="st3" points="23.6,2.6 36.6,2.6 36.6,6.2 32.5,6.2 32.5,21.1 27.8,21.1 27.8,6.2 23.6,6.2 				"/>
				<path id="Fill-2" class="st3" d="M34.7,8.1h4.2v2h0.1c0.5-1.7,2.4-2.3,4-2.3V12c-0.6-0.2-1.1-0.3-1.7-0.3c-1.4,0-1.9,0.3-2.3,1
					v8.4h-4.2V8.1L34.7,8.1z"/>
				<polygon id="Fill-4" class="st3" points="44,21.1 48.3,21.1 48.3,8.1 44,8.1 				"/>
				<path id="Fill-6" class="st3" d="M49.7,8.1h4.2v1.7h0.1c0.9-1.3,2.2-2,3.7-2c1.3,0,2.6,0.8,2.6,2h0.1c0.9-1.3,2.2-2,3.7-2
					c1.7,0,2.9,0.9,2.9,2.7v10.6h-4.2v-9.2c0-0.6-0.2-1.1-1-1.1c-0.4,0-0.8,0.2-1.1,0.6l-0.3,0.3v9.5h-4.2v-9.2c0-0.6-0.3-1.1-1-1.1
					c-0.4,0-0.8,0.2-1.1,0.6l-0.3,0.3v9.5h-4.2V8.1z"/>
				<path id="Fill-7" class="st3" d="M72.6,16.9c-0.1,1.1,0.6,1.7,1.4,1.7c1.2,0,1.3-1.2,1.3-3.6v-1c0-2.5,0-3.9-1.3-3.9
					c-0.5,0-0.9,0.3-1.1,0.6l-0.3,0.2V16.9z M68.4,2.6h4.2v6.2h0.1c0.6-0.6,1.7-1,2.6-1c2.9,0,4.5,2.9,4.5,6.6c0,3-1.3,6.8-4.8,6.8
					c-1.7,0-2.7-0.8-3.5-2l-0.8,1.9h-2.2V2.6z"/>
				<polygon id="Fill-8" class="st3" points="80.8,21.1 85,21.1 85,2.6 80.8,2.6 				"/>
				<path id="Fill-9" class="st3" d="M93.4,12.6c0-1.2-0.1-2.6-1.6-2.6c-1.2,0-1.5,1.4-1.5,2.6H93.4z M90.3,15.1
					c0,1.1,0.2,3.1,1.9,3.1c1,0,1.9-0.8,2.1-1.8l2.8,1C96.9,18,95.7,21,91.9,21c-4,0-5.8-3.2-5.8-6.9c0-3.7,1.9-6.8,5.8-6.8
					c4,0,5.4,3.4,5.4,6.8v0.9H90.3z"/>
				<polygon id="Fill-10" class="st3" points="44,6.3 48.3,6.3 48.3,2.5 44,2.5 				"/>
				<path id="Fill-11" class="st3" d="M15.2,16.5c-0.1,0.3-0.2,0.6-0.3,0.8c-0.1,0.1-0.1,0.2-0.1,0.3c-0.2,0.2-0.3,0.3-0.4,0.3
					c-1,0.8-1.7,1.3-2.9,1.7c-0.4,0.1-1.4,0.3-2.6,0.3l-1.8,1c2.2,0.5,4,0.1,4.7-0.2c1.3-0.4,2.2-0.9,3.3-1.8
					c0.3-0.1,1.4-1.1,2.2-2.7c0.1-0.3,0.3-0.6,0.4-0.9L15.2,16.5z"/>
				<path id="Fill-12" class="st3" d="M8.8,3.8H9h0.3C9.2,3.9,9,3.9,8.8,4l1.6,0.9c1.3-0.1,2.6,0.5,3.4,1.4c-0.2,0-0.4,0.1-0.6,0.1
					l2.7,1.5V7.8C16,7.8,16.1,7.9,16.1,8L18,9c-0.1-0.1-0.1-0.1-0.1-0.2s-0.1-0.1-0.1-0.1s-0.1-0.1-0.1-0.2C17.3,7,16.3,5.7,15,4.7
					c0-0.1-0.1-0.1-0.1-0.1C12.9,3,10.9,2.7,10,2.7H9.8C9.2,2.6,8.6,2.6,8,2.7c0,0.1-0.1,0.1-0.1,0.1c-0.3,0-0.4,0.1-0.6,0.1
					c-0.1,0-0.3,0.1-0.4,0.1l1.7,1C8.6,3.8,8.7,3.8,8.8,3.8"/>
				<path id="Fill-13" class="st3" d="M1.8,14.8c-0.3-0.6-0.4-1.4-0.4-1.7c-0.1-0.8-0.1-0.8-0.1-1.5c0-0.3,0.1-0.6,0.1-0.8
					c0.1-0.6,0.2-1.2,0.6-2V6.3C1.6,6.7,1.2,7.1,1,7.6c-0.7,1.3-0.8,2.2-1,2.9C0,10.9,0,11.3,0,11.6c0,0.8,0,0.8,0.1,1.6
					c0.1,0.5,0.3,1.5,0.7,2.3C1,16.1,1.3,16.6,1.6,17c0,0.1,0.1,0.1,0.1,0.1c0.1,0.1,0.1,0.1,0.1,0.2v-2.7
					C1.8,14.7,1.8,14.8,1.8,14.8"/>
				<path id="Fill-14" class="st3" d="M15.4,10.5c-0.1,0.2-0.3,0.3-0.4,0.5c0.4,0.8,0.8,1.7,1,2.4c0.1-0.1,0.2-0.2,0.3-0.4
					c0.8-1.1,0.9-2.6,0.4-4.1c-0.1-0.1-0.1-0.1-0.1-0.1c-0.1-0.1-0.1-0.3-0.2-0.4c0-0.1-0.1-0.1-0.1-0.2c0-0.1-0.1-0.2-0.2-0.3
					l-0.3-0.2C16.1,8.8,15.9,9.7,15.4,10.5"/>
				<path id="Fill-15" class="st3" d="M8.2,3.9L8.2,3.9C7.8,3.9,7.4,4,7,4.1c0.3,0.1,0.6,0.2,1,0.3C8.2,4.3,8.5,4.1,8.8,4L8.5,3.9
					H8.2z"/>
				<path id="Fill-16" class="st3" d="M17.8,15.1l5.7-3.1L18,9C18.7,11.4,18.4,13.5,17.8,15.1"/>
				<path id="Fill-17" class="st3" d="M10,4.9L10,4.9C9.7,5,9.5,5,9.3,5.1c0.8,0.4,1.6,1,2.4,1.7c0.5-0.2,1-0.3,1.5-0.4l-2.7-1.5H10
					z"/>
				<path id="Fill-18" class="st3" d="M12.7,16.6c-3.2,0.4-6.5-1.1-8.5-3.5c-0.8,0.9-1.3,1.8-1.5,2.5c-0.1,0.3-0.1,0.6,0,0.8
					C2.8,16.7,3,16.8,3.1,17c0.5,0.6,1.8,1.9,3.9,2.5c0.7,0.2,1.4,0.3,2,0.3l6.1-3.3c0-0.3,0.1-0.5,0.1-0.8
					C14.5,16.2,13.6,16.5,12.7,16.6"/>
				<path id="Fill-19" class="st3" d="M4.3,11.1c0.8-0.7,1.6-1.3,2.5-2C6.7,9,6.7,8.9,6.6,8.8C6.2,7.6,6.4,6.5,6.9,5.5
					C6.9,5.5,7,5.4,7,5.3C6.4,5.1,5.7,5.1,5.2,5.2c-0.3,0.3-0.6,0.6-0.8,1C3.9,6.9,3.7,7.8,3.7,8.6c0,0.6,0.1,1.2,0.3,1.8
					C4.1,10.7,4.2,10.9,4.3,11.1"/>
				<path id="Fill-20" class="st3" d="M7.8,8.3c0,0.1,0,0.1,0.1,0.2c0.8-0.5,1.7-1,2.5-1.3c-0.7-0.6-1.4-1-2.2-1.4
					C8.1,5.9,8,6,7.9,6.2C7.5,6.8,7.4,7.6,7.8,8.3"/>
				<path id="Fill-21" class="st3" d="M12.4,11.1c0.4-0.1,0.8-0.1,1.1-0.3c-0.6-1-1.3-1.8-2.2-2.7c-0.1,0.1-0.3,0.1-0.4,0.2
					C10.1,8.6,9.2,9,8.4,9.5C9.4,10.6,10.9,11.3,12.4,11.1"/>
				<path id="Fill-22" class="st3" d="M4.5,3.9c0.6-0.4,1.2-0.7,2.3-1l-5-2.7v6.1C3,4.8,4.3,4,4.5,3.9"/>
				<path id="Fill-23" class="st3" d="M14.4,9.9c0.4-0.6,0.4-1.4,0.2-2.2c0-0.1-0.1-0.1-0.1-0.2c-0.6,0-1.2,0.1-1.9,0.3
					C13.3,8.4,13.9,9.2,14.4,9.9L14.4,9.9z"/>
				<path id="Fill-24" class="st3" d="M12.5,15.4c1-0.1,1.9-0.4,2.6-1c-0.2-0.9-0.5-1.8-1-2.7c-0.4,0.3-1,0.4-1.5,0.5
					c-1.9,0.3-4-0.6-5.1-2.1c-0.9,0.6-1.7,1.3-2.4,2C6.7,14.4,9.7,15.8,12.5,15.4"/>
				<path id="Fill-25" class="st3" d="M3.5,12.1c-0.3-0.4-0.4-0.8-0.6-1.3C2.5,9.5,2.4,8.3,2.6,7.2c-0.2,0.3-0.4,0.6-0.6,1
					C2,8.3,1.9,8.5,1.8,8.7v5.9C2.1,13.8,2.7,12.9,3.5,12.1"/>
				<path id="Fill-26" class="st3" d="M16.9,14.5c-0.2,0.1-0.3,0.3-0.5,0.4v0.4C16.5,15.1,16.7,14.8,16.9,14.5"/>
				<path id="Fill-27" class="st3" d="M2.2,17.8c-0.1-0.1-0.3-0.3-0.4-0.4v6.4l5.4-2.9c-0.2,0-0.4-0.1-0.6-0.1
					C4.2,19.9,2.7,18.4,2.2,17.8"/>
				<polygon id="Fill-28" class="st3" points="97.8,21 97.8,19.7 97.4,19.7 97.4,19.5 98.4,19.5 98.4,19.7 98,19.7 98,21 				"/>
				<polygon id="Fill-29" class="st3" points="98.8,21 98.6,21 98.6,19.5 98.8,19.5 99.3,20.7 99.7,19.5 100,19.5 100,21 99.8,21 
					99.8,19.7 99.4,21 99.2,21 98.8,19.7 				"/>
			</g>
		</g>
	</g>
</g>
</svg>
