<?xml version="1.0" encoding="UTF-8" standalone="no"?>
<svg width="60px" height="56px" viewBox="0 0 60 56" version="1.1" xmlns="http://www.w3.org/2000/svg" xmlns:xlink="http://www.w3.org/1999/xlink">
    <!-- Generator: Sketch 39.1 (31720) - http://www.bohemiancoding.com/sketch -->
    <title>Page 1</title>
    <desc>Created with Sketch.</desc>
    <defs></defs>
    <g id="Home" stroke="none" stroke-width="1" fill="none" fill-rule="evenodd">
        <g id="Home-D" transform="translate(-1068.000000, -1291.000000)" stroke="#47474B" stroke-width="0.5" fill="#47474B">
            <g id="MDK-Open" transform="translate(30.000000, 860.000000)">
                <g id="MDK" transform="translate(183.000000, 43.000000)">
                    <g id="Step-1-Copy-2" transform="translate(850.000000, 382.000000)">
                        <path d="M54.7016827,30.4191569 L64,21.1208396 L53.1086371,10.2979351 C50.9586729,8.21642936 48.1139485,7.03875969 45.1295319,7.03875969 C42.1441901,7.03875969 39.3003908,8.21642936 37.1504267,10.3700939 L35.7627562,11.7577644 L41.5225138,17.4462882 L32.2251216,26.7446055 L28.0621102,22.581594 L28.2711859,20.1531707 C28.6181035,16.1270761 27.1619746,12.1740655 24.3181753,9.26088267 L23.9712577,8.91396505 L15.8543106,7.8732122 L13.147428,10.5800947 L19.9488635,17.3806051 L15.5073929,21.8220757 L8.70688253,15.0215653 L6,17.7275227 L7.17766967,25.7066279 L7.38767047,25.9166287 C10.2999282,28.8288865 14.3260228,30.2896409 18.4205758,29.8696393 L20.432698,29.6605637 L24.8057102,33.9604919 L8.42472286,50.608837 C6.41167557,52.6218843 6.41167557,55.8819848 8.42472286,57.9634905 C9.39701731,58.9348599 10.7162294,59.4880778 12.1038998,59.4880778 C13.4915703,59.4880778 14.8098572,58.9320845 15.7821517,57.9634905 L32.2972805,41.3799033 L37.7785788,46.7927433 L37.5695032,49.2211666 C37.2225855,53.2472612 38.6787144,57.2002718 41.5225138,60.1134546 L41.8694314,60.4603723 L49.9863785,61.5011251 L52.693261,58.7942426 L45.8918255,51.9937322 L50.3332961,47.5522616 L57.1338065,54.352772 L59.8406891,51.6468146 L58.6630194,43.6677094 L58.4530186,43.4577086 C55.5407608,40.5454508 51.5146662,39.0846964 47.4201132,39.504698 L45.4079911,39.7137736 L39.7879257,34.0946334 L49.1547013,24.7278577 L54.7016827,30.4191569 Z M21.3291331,27.5753575 L18.3447165,27.8538167 C14.9439987,28.2007343 11.6838982,27.0221395 9.18701651,24.7315582 L8.21472207,18.4870411 L8.69948162,18.0022815 L15.499992,24.803717 L22.8546455,17.4499887 L16.0569104,10.6448527 L16.5407449,10.1610182 L22.9231039,10.9917703 C25.2136853,13.4201936 26.3922801,16.6802941 26.1138209,20.0116283 L25.9075205,23.4123461 L30.7643672,28.2691927 L26.3922801,32.6422049 L21.3291331,27.5753575 Z M44.4356966,41.7989798 L47.4201132,41.5205206 C50.820831,41.173603 54.0809315,42.3521978 56.5778132,44.6427791 L57.5501077,50.8872963 L57.0653481,51.3720558 L50.2648377,44.5706203 L42.9064838,51.9965075 L49.7079193,58.797943 L49.2240849,59.2817775 L42.8417258,58.4510254 C40.5511444,56.0226021 39.3725496,52.7634267 39.6510089,49.4311674 L39.9294681,46.0304496 L33.7534094,39.9237744 L38.1254965,35.5507622 L44.4356966,41.7989798 Z M37.3558019,33.3360402 L31.5275859,39.1642561 L14.3223224,56.5064365 C13.7654039,57.063355 12.9346519,57.4102726 12.1038998,57.4102726 C11.2722227,57.4102726 10.5062286,57.063355 9.8845522,56.5064365 C8.70688253,55.3287669 8.70688253,53.3157196 9.8845522,52.1343494 L27.1582742,34.7921691 L32.9874153,28.963028 L44.504155,17.3778298 L38.7434724,11.689306 C40.4780605,10.0231763 42.6974081,9.12396585 45.1258314,9.12396585 C47.5542547,9.12396585 49.8448361,10.0953352 51.5794242,11.7614648 L61.0155834,21.0597821 L54.6332243,27.441216 L48.8040833,21.6814585 L37.3558019,33.3360402 Z" id="Page-1"></path>
                    </g>
                </g>
            </g>
        </g>
    </g>
</svg>