<?xml version="1.0" encoding="UTF-8" standalone="no"?>
<svg width="33px" height="34px" viewBox="0 0 33 34" version="1.1" xmlns="http://www.w3.org/2000/svg" xmlns:xlink="http://www.w3.org/1999/xlink">
    <!-- Generator: Sketch 39.1 (31720) - http://www.bohemiancoding.com/sketch -->
    <title>Icon-Calendar</title>
    <desc>Created with Sketch.</desc>
    <defs></defs>
    <g id="Home" stroke="none" stroke-width="1" fill="none" fill-rule="evenodd">
        <g id="Home-D" transform="translate(-269.000000, -3082.000000)" fill="#47474B">
            <g id="NEWS" transform="translate(30.000000, 2660.000000)">
                <g id="List---Content-Copy" transform="translate(213.000000, 420.000000)">
                    <g id="Icon-Calendar" transform="translate(26.000000, 2.000000)">
                        <path d="M12.4162704,23.4974041 C12.4162704,24.6107231 12.4865578,25.3759119 12.6266933,25.7929703 C12.7663895,26.2104649 13.0018523,26.4194303 13.3313246,26.4194303 C13.6660683,26.4194303 13.9019704,26.2039211 14.0399095,25.7729026 C14.1778485,25.3423203 14.246818,24.5836754 14.246818,23.4974041 C14.246818,22.4067702 14.1765306,21.6428903 14.0363951,21.2048917 C13.8966989,20.7673294 13.6612361,20.5487664 13.3313246,20.5487664 C13.0018523,20.5487664 12.7663895,20.7594768 12.6266933,21.181334 C12.4865578,21.6031912 12.4162704,22.37536 12.4162704,23.4974041 M16.9107107,23.4974041 C16.9107107,25.2389282 16.6172608,26.5145336 16.0299217,27.3246565 C15.4421432,28.1347793 14.5424644,28.5400588 13.3313246,28.5400588 C12.1474211,28.5400588 11.254771,28.1168929 10.6538137,27.2709973 C10.0528563,26.4246654 9.75237767,25.1669464 9.75237767,23.4974041 C9.75237767,21.7471549 10.0458276,20.4632607 10.6331667,19.646594 C11.2209452,18.8299274 12.1201847,18.4211578 13.3313246,18.4211578 C14.5112744,18.4211578 15.4026066,18.846505 16.0057604,19.6971994 C16.6093535,20.5474576 16.9107107,21.8143379 16.9107107,23.4974041" id="Fill-1"></path>
                        <path d="M23.1542825,28.2639103 L20.435917,28.2639103 L20.435917,23.053298 C20.435917,22.4202941 20.4490959,21.8413856 20.4763323,21.3161364 C20.3089604,21.5181217 20.1011733,21.7292685 19.8525316,21.9491403 L18.7274938,22.8713803 L17.3375603,21.1747902 L20.7407887,18.4211578 L23.1542825,18.4211578 L23.1542825,28.2639103 Z" id="Fill-3"></path>
                        <path d="M7.02874066,8.42667351 L7.02874066,2.74185354 C7.02874066,2.3374465 7.28177533,2.00894758 7.68856369,2.00894758 C8.09447347,2.00894758 8.34662954,2.3374465 8.34662954,2.74185354 L8.34662954,8.42667351 C8.34662954,8.82977178 8.09447347,9.15783445 7.68856369,9.15783445 C7.28177533,9.15783445 7.02874066,8.82977178 7.02874066,8.42667351 L7.02874066,8.42667351 Z M15.3753702,8.42667351 L15.3753702,2.74185354 C15.3753702,2.3374465 15.848053,2.00894758 16.2548414,2.00894758 C16.6607512,2.00894758 17.1325554,2.3374465 17.1325554,2.74185354 L17.1325554,8.42667351 C17.1325554,8.82977178 16.6607512,9.15783445 16.2548414,9.15783445 C15.848053,9.15783445 15.3753702,8.82977178 15.3753702,8.42667351 L15.3753702,8.42667351 Z M24.161296,8.42667351 L24.161296,2.74185354 C24.161296,2.3374465 24.4143307,2.00894758 24.8202405,2.00894758 C25.2261502,2.00894758 25.4791849,2.3374465 25.4791849,2.74185354 L25.4791849,8.42667351 C25.4791849,8.82977178 25.2261502,9.15783445 24.8202405,9.15783445 C24.4143307,9.15783445 24.161296,8.82977178 24.161296,8.42667351 L24.161296,8.42667351 Z M7.6872458,11.1672183 C9.21028605,11.1672183 10.543111,9.93698328 10.543111,8.42492849 L10.543111,6.95955283 L13.618185,6.95955283 L13.618185,8.42492849 C13.618185,9.93698328 14.7313618,11.1672183 16.2539628,11.1672183 C17.7765637,11.1672183 18.8897405,9.93698328 18.8897405,8.42492849 L18.8897405,6.95955283 L21.9648146,6.95955283 L21.9648146,8.42492849 C21.9648146,9.93698328 23.2976395,11.1672183 24.8202405,11.1672183 C26.3428414,11.1672183 27.6756664,9.93698328 27.6756664,8.42492849 L27.6756664,6.90414863 C28.9935552,6.94210269 30.3114441,8.19982166 30.3114441,9.74066919 L30.3114441,13.503356 L2.19648146,13.503356 L2.19648146,9.7424142 C2.19648146,8.19240535 3.51437033,6.92814257 4.83225921,6.90371237 L4.83225921,8.42492849 C4.83225921,9.93698328 6.16508415,11.1672183 7.6872458,11.1672183 L7.6872458,11.1672183 Z M30.3114441,15.2483702 L30.3114441,28.2657398 C30.3114441,29.8314538 29.0897611,30.9534979 27.5148839,30.9534979 L5.0457572,30.9534979 C3.47000141,30.9534979 2.19648146,29.8323263 2.19648146,28.2674848 L2.19648146,15.2483702 L30.3114441,15.2483702 Z M31.0661551,6.31564259 C30.1603262,5.41608778 28.9935552,4.91308744 27.6756664,4.89476479 L27.6756664,2.74185354 C27.6756664,1.22979875 26.3428414,0 24.8202405,0 C23.2976395,0 21.9648146,1.22979875 21.9648146,2.74185354 L21.9648146,4.7782851 L18.8897405,4.7782851 L18.8897405,2.74185354 C18.8897405,1.22979875 17.7765637,0 16.2539628,0 C14.7313618,0 13.618185,1.22979875 13.618185,2.74185354 L13.618185,4.7782851 L10.543111,4.7782851 L10.543111,2.74185354 C10.543111,1.22979875 9.21028605,0 7.6872458,0 C6.16508415,0 4.83225921,1.22979875 4.83225921,2.74185354 L4.83225921,4.89432854 C2.19648146,4.91963125 0,7.0847576 0,9.7424142 L0,28.2674848 C0,30.9408465 2.35199234,33.1347656 5.04400002,33.1347656 L27.5131267,33.1347656 C30.2046951,33.1347656 32.5079256,30.9408465 32.5079256,28.2674848 L32.5079256,9.7424142 C32.5079256,8.44935869 31.9891166,7.2322113 31.0661551,6.31564259 L31.0661551,6.31564259 Z" id="Fill-5"></path>
                    </g>
                </g>
            </g>
        </g>
    </g>
</svg>