<?xml version="1.0" encoding="UTF-8" standalone="no"?>
<svg width="65px" height="84px" viewBox="0 0 65 84" version="1.1" xmlns="http://www.w3.org/2000/svg" xmlns:xlink="http://www.w3.org/1999/xlink">
    <!-- Generator: Sketch 39.1 (31720) - http://www.bohemiancoding.com/sketch -->
    <title>Page 1</title>
    <desc>Created with Sketch.</desc>
    <defs></defs>
    <g id="SDK-Resources-Files" stroke="none" stroke-width="1" fill="none" fill-rule="evenodd">
        <g id="SDK-Resources-Files-D" transform="translate(-458.000000, -1237.000000)" fill="#47474B">
            <g id="Content---List" transform="translate(430.000000, 725.000000)">
                <g id="List-Over" transform="translate(0.000000, 80.000000)">
                    <g id="List--OVER" transform="translate(0.000000, 400.000000)">
                        <g id="OPEN">
                            <g id="Group-2" transform="translate(28.000000, 32.000000)">
                                <g id="Page-1">
                                    <path d="M4.39217245,78.8158453 L60.3923712,78.8158453 L60.3923712,17.1117957 L47.3179718,4.37865807 L4.39217245,4.37865807 L4.39217245,78.8158453 Z M62.5884574,83.1945033 L2.19608622,83.1945033 C0.983846628,83.1945033 0,82.2136839 0,81.0051743 L0,2.18932904 C0,0.980819408 0.983846628,0 2.19608622,0 L48.212877,0 C48.7871535,0 49.3372731,0.224406226 49.7479412,0.622864111 L64.1224236,14.6236233 C64.5462682,15.0363118 64.7845436,15.600064 64.7845436,16.1900882 L64.7845436,81.0051743 C64.7845436,82.2136839 63.800697,83.1945033 62.5884574,83.1945033 L62.5884574,83.1945033 Z" id="Fill-1"></path>
                                    <path d="M48.0400479,21.9920349 L11.0294067,21.9920349 C10.0664229,21.9920349 9.28571429,21.2137284 9.28571429,20.2537076 C9.28571429,19.2936869 10.0664229,18.5142857 11.0294067,18.5142857 L48.0400479,18.5142857 C49.0030317,18.5142857 49.7837403,19.2936869 49.7837403,20.2537076 C49.7837403,21.2137284 49.0030317,21.9920349 48.0400479,21.9920349" id="Fill-3"></path>
                                    <path d="M34.3551366,15.0491777 L11.0294067,15.0491777 C10.0664229,15.0491777 9.28571429,14.2708713 9.28571429,13.3108505 C9.28571429,12.3508297 10.0664229,11.5714286 11.0294067,11.5714286 L34.3551366,11.5714286 C35.3181204,11.5714286 36.098829,12.3508297 36.098829,13.3108505 C36.098829,14.2708713 35.3181204,15.0491777 34.3551366,15.0491777" id="Fill-5"></path>
                                    <path d="M36.2986729,31.2491777 L11.0305048,31.2491777 C10.067521,31.2491777 9.28571429,30.4708713 9.28571429,29.5108505 C9.28571429,28.5508297 10.067521,27.7714286 11.0305048,27.7714286 L36.2986729,27.7714286 C37.2616567,27.7714286 38.0423653,28.5508297 38.0423653,29.5108505 C38.0423653,30.4708713 37.2616567,31.2491777 36.2986729,31.2491777" id="Fill-7"></path>
                                    <path d="M25.8991066,38.1920349 L11.0294067,38.1920349 C10.067521,38.1920349 9.28571429,37.4137284 9.28571429,36.4537076 C9.28571429,35.4936869 10.067521,34.7142857 11.0294067,34.7142857 L25.8991066,34.7142857 C26.8620904,34.7142857 27.642799,35.4936869 27.642799,36.4537076 C27.642799,37.4137284 26.8620904,38.1920349 25.8991066,38.1920349" id="Fill-9"></path>
                                    <path d="M21.4937576,47.4491777 L11.0305048,47.4491777 C10.067521,47.4491777 9.28571429,46.6708713 9.28571429,45.7108505 C9.28571429,44.7508297 10.067521,43.9714286 11.0305048,43.9714286 L21.4937576,43.9714286 C22.4567414,43.9714286 23.2374501,44.7508297 23.2374501,45.7108505 C23.2374501,46.6708713 22.4567414,47.4491777 21.4937576,47.4491777" id="Fill-11"></path>
                                    <path d="M23.5734513,54.3920349 L11.0294067,54.3920349 C10.0664229,54.3920349 9.28571429,53.6137284 9.28571429,52.6537076 C9.28571429,51.6936869 10.0664229,50.9142857 11.0294067,50.9142857 L23.5734513,50.9142857 C24.5364351,50.9142857 25.3171437,51.6936869 25.3171437,52.6537076 C25.3171437,53.6137284 24.5364351,54.3920349 23.5734513,54.3920349" id="Fill-13"></path>
                                    <path d="M32.455522,63.6491777 L11.0305048,63.6491777 C10.067521,63.6491777 9.28571429,62.8708713 9.28571429,61.9108505 C9.28571429,60.9508297 10.067521,60.1714286 11.0305048,60.1714286 L32.455522,60.1714286 C33.4185058,60.1714286 34.1992145,60.9508297 34.1992145,61.9108505 C34.1992145,62.8708713 33.4185058,63.6491777 32.455522,63.6491777" id="Fill-15"></path>
                                    <path d="M48.2344015,72.9063206 L11.0305048,72.9063206 C10.067521,72.9063206 9.28571429,72.1280141 9.28571429,71.1679933 C9.28571429,70.2079726 10.067521,69.4285714 11.0305048,69.4285714 L48.2344015,69.4285714 C49.1973853,69.4285714 49.978094,70.2079726 49.978094,71.1679933 C49.978094,72.1280141 49.1973853,72.9063206 48.2344015,72.9063206" id="Fill-17"></path>
                                    <path d="M47.9482631,54.6569401 C47.5595558,54.6569401 47.1708486,54.5091604 46.8732789,54.213601 C46.2803356,53.6213874 46.2803356,52.6624613 46.8732789,52.0713425 L52.1779252,46.7830182 L47.309202,41.9292757 C46.7162587,41.3381569 46.7162587,40.3792308 47.309202,39.7870173 C47.9021453,39.1948038 48.8651291,39.1948038 49.4580724,39.7870173 L55.4017797,45.7124363 C55.994723,46.3035551 55.994723,47.2624813 55.4017797,47.8546948 L49.0232473,54.213601 C48.7256776,54.5091604 48.3369704,54.6569401 47.9482631,54.6569401" id="Fill-19"></path>
                                    <path d="M35.755367,54.6569401 C35.3666597,54.6569401 34.9779524,54.5091604 34.6803828,54.213601 L28.3018503,47.8546948 C27.708907,47.2624813 27.708907,46.3035551 28.3018503,45.7124363 L34.2455577,39.7870173 C34.838501,39.1948038 35.8014848,39.1948038 36.3944281,39.7870173 C36.9884694,40.3792308 36.9884694,41.3381569 36.3944281,41.9292757 L31.5257049,46.7830182 L36.8303512,52.0713425 C37.4232944,52.6624613 37.4232944,53.6213874 36.8303512,54.213601 C36.5327815,54.5091604 36.1440742,54.6569401 35.755367,54.6569401" id="Fill-21"></path>
                                    <path d="M39.6047047,55.7229491 C38.797643,55.4941642 38.3287786,54.6556512 38.5582696,53.8510728 L42.4837737,40.1009918 C42.7132647,39.297508 43.5499736,38.8278969 44.3614274,39.0588711 C45.1673911,39.287656 45.6362555,40.126169 45.4067645,40.9307475 L41.4823584,54.6808285 C41.2912989,55.3463845 40.682983,55.7809663 40.020863,55.7809663 C39.8836076,55.7809663 39.7441561,55.762357 39.6047047,55.7229491 Z" id="Fill-23"></path>
                                </g>
                            </g>
                        </g>
                    </g>
                </g>
            </g>
        </g>
    </g>
</svg>