<?xml version="1.0" encoding="UTF-8" standalone="no"?>
<svg width="66px" height="52px" viewBox="0 0 66 52" version="1.1" xmlns="http://www.w3.org/2000/svg" xmlns:xlink="http://www.w3.org/1999/xlink">
    <!-- Generator: Sketch 39.1 (31720) - http://www.bohemiancoding.com/sketch -->
    <title>Page 1</title>
    <desc>Created with Sketch.</desc>
    <defs>
        <polygon id="path-1" points="0.000187234043 40.6434046 65.6694851 40.6434046 65.6694851 9.03186767e-05 0.000187234043 9.03186767e-05"></polygon>
    </defs>
    <g id="Home" stroke="none" stroke-width="1" fill="none" fill-rule="evenodd">
        <g id="Home-D" transform="translate(-669.000000, -1290.000000)">
            <g id="MDK-Open" transform="translate(30.000000, 860.000000)">
                <g id="MDK" transform="translate(183.000000, 43.000000)">
                    <g id="Step-1-Copy" transform="translate(456.000000, 382.000000)">
                        <g id="Page-1" transform="translate(0.000000, 5.813953)">
                            <path d="M39.3454085,20.7186529 L35.1312383,24.9356319 L35.1312383,2.08907099 C35.1312383,0.935701492 34.161366,0 32.9658766,0 C31.7708553,0 30.8005149,0.935701492 30.8005149,2.08907099 L30.8005149,24.9356319 L26.5863447,20.7186529 C25.7559617,19.887721 24.3835362,19.8664961 23.5231957,20.6640101 C22.6619191,21.4651367 22.6399191,22.7892085 23.4665574,23.6192372 L31.406217,31.5618616 C31.4548979,31.6056662 31.4591106,31.6128917 31.4628553,31.616956 C31.4965574,31.6490191 31.5377489,31.6706956 31.5714511,31.7005008 C31.5976638,31.7217257 31.6234085,31.740241 31.6505574,31.7614659 C31.6842596,31.7867551 31.7137489,31.8165603 31.7474511,31.8377852 C31.8382596,31.8960407 31.8986426,31.9213299 31.9543447,31.9502319 C32.0297064,31.9863594 32.0708979,32.0152614 32.1200468,32.0337767 C32.2220894,32.0735169 32.2857489,32.0884195 32.3489404,32.1060316 C32.4097915,32.1209342 32.4626851,32.1457719 32.5221319,32.1570617 C32.6274511,32.1746738 32.6915787,32.1746738 32.758983,32.1823509 C32.8235787,32.1895764 32.8830255,32.1968019 32.9466851,32.2008662 C33.0487277,32.2008662 33.1086426,32.1895764 33.1727702,32.1823509 C33.2401745,32.1746738 33.3047702,32.1746738 33.3721745,32.1606744 C33.4690681,32.1421591 33.5261745,32.1209342 33.5828128,32.1060316 C33.6464723,32.0848067 33.7096638,32.0699042 33.7742596,32.0486793 C33.8688128,32.0121002 33.9207702,31.9786823 33.9774085,31.9502319 C34.0331106,31.9213299 34.0939617,31.8960407 34.1496638,31.8599132 C34.2217489,31.8124959 34.2591957,31.7763685 34.2971106,31.7465633 C34.3191106,31.7330155 34.3420468,31.7140486 34.3645149,31.6964364 C34.3977489,31.6670829 34.4356638,31.6454064 34.469366,31.616956 C34.5143021,31.5695387 34.5180468,31.5654744 34.5260043,31.5618616 L42.4651957,23.6192372 C43.2960468,22.7892085 43.269834,21.4651367 42.4085574,20.6640101 C41.548217,19.8664961 40.1757915,19.887721 39.3454085,20.7186529" id="Fill-1" fill="#47474B"></path>
                            <g id="Group-5" transform="translate(0.000000, 9.850606)">
                                <mask id="mask-2" fill="white">
                                    <use xlink:href="#path-1"></use>
                                </mask>
                                <g id="Clip-4"></g>
                                <path d="M59.7627191,33.8117902 C58.9543362,36.2662002 55.483017,37.4823412 49.4681234,37.4823412 L15.7959532,37.4823412 C8.0454,37.4823412 7.11765532,35.1516677 6.42348511,33.3669707 C5.96242128,32.1372819 5.49574043,31.0331361 5.14888936,30.0283408 C6.18991064,30.4731603 7.34561277,30.7084404 8.62020851,30.7084404 L56.9855702,30.7084404 C58.3743787,30.7084404 59.7627191,30.3634231 60.9179532,29.8034473 C60.570634,31.0331361 60.223783,32.3621754 59.7627191,33.8117902 M65.5557404,20.8790588 L63.4727617,9.26768975 C62.5454851,4.13397616 57.3385064,9.03186767e-05 52.0173149,9.03186767e-05 L42.4449745,9.03186767e-05 C42.4449745,9.03186767e-05 41.5088043,0.39523453 41.5088043,1.63711634 C41.5088043,2.87899814 42.4449745,3.16124401 42.4449745,3.16124401 L51.8979532,3.16124401 C55.7165915,3.16124401 59.421017,6.21175732 60.1151872,9.78566736 L62.198166,21.4155518 C62.5454851,23.09006 62.0844213,24.5365137 61.1566766,25.7662024 C60.1151872,26.8807349 58.7268468,27.5472867 56.9911872,27.5472867 L8.62020851,27.5472867 C6.88454894,27.5472867 5.52944255,26.8897668 4.48795319,25.8849715 C4.02688936,25.3249957 3.59391064,24.6679273 3.59391064,23.9977627 L3.59391064,23.8880256 C3.12582553,23.1085754 3.33271915,22.3286736 3.56582553,21.5438043 L5.97927234,9.78566736 C6.78718723,6.21175732 10.5889745,3.16124401 14.4076128,3.16124401 L23.7215702,3.16124401 C23.7215702,3.16124401 25.1258255,2.90699693 25.1258255,1.63711634 C25.1258255,0.366784146 23.7215702,9.03186767e-05 23.7215702,9.03186767e-05 L14.4076128,9.03186767e-05 C9.08642128,9.03186767e-05 3.76008085,4.12855704 2.71859149,9.15208184 L0.175017021,20.8740913 C-0.0580893617,22.1037801 -0.0580893617,23.2183126 0.175017021,24.3382642 C0.288761702,26.4575919 1.33025106,29.753772 3.18527234,34.4426661 C4.68782553,38.1263134 7.3507617,40.6434949 15.6822085,40.6434949 L49.3543787,40.6434949 C57.1049319,40.6434949 61.5039957,38.7964779 62.7785915,34.7772968 C64.7422085,29.084059 65.6694851,25.0915219 65.6694851,22.9721942 C65.6694851,22.3024812 65.6694851,21.6589606 65.5557404,20.8790588" id="Fill-3" fill="#47474B" mask="url(#mask-2)"></path>
                            </g>
                        </g>
                    </g>
                </g>
            </g>
        </g>
    </g>
</svg>