<?xml version="1.0" encoding="UTF-8" standalone="no"?>
<svg width="26px" height="26px" viewBox="0 0 26 26" version="1.1" xmlns="http://www.w3.org/2000/svg" xmlns:xlink="http://www.w3.org/1999/xlink">
    <!-- Generator: Sketch 39.1 (31720) - http://www.bohemiancoding.com/sketch -->
    <title>Page 1</title>
    <desc>Created with Sketch.</desc>
    <defs></defs>
    <g id="UI-Elements" stroke="none" stroke-width="1" fill="none" fill-rule="evenodd">
        <g id="Desktop" transform="translate(-480.000000, -438.000000)" fill="#D0011B">
            <g id="Mail-Copy-8" transform="translate(110.000000, 423.000000)">
                <g id="Page-1" transform="translate(370.000000, 15.000000)">
                    <path d="M17.4552147,15.2922441 C18.05245,15.8894794 18.05245,16.8579794 17.4552147,17.4552147 C17.1565971,17.7538324 16.7650676,17.9033324 16.3735382,17.9033324 C15.9820088,17.9033324 15.5908618,17.7538324 15.2922441,17.4552147 L12.90445,15.0674206 L10.5166559,17.4552147 C10.2180382,17.7538324 9.82650882,17.9033324 9.43497941,17.9033324 C9.04345,17.9033324 8.65230294,17.7538324 8.35368529,17.4552147 C7.75645,16.8579794 7.75645,15.8894794 8.35368529,15.2922441 L10.7414794,12.90445 L8.35368529,10.5166559 C7.75645,9.91903824 7.75645,8.95092059 8.35368529,8.35368529 C8.95130294,7.75645 9.91980294,7.75683235 10.5166559,8.35368529 L12.90445,10.7414794 L15.2922441,8.35368529 C15.8894794,7.75645 16.8579794,7.75645 17.4552147,8.35368529 C18.05245,8.95092059 18.05245,9.91903824 17.4552147,10.5166559 L15.0674206,12.90445 L17.4552147,15.2922441 Z M22.0293029,3.77959706 C16.9902735,-1.25981471 8.81862647,-1.25981471 3.77959706,3.77959706 C-1.25981471,8.81862647 -1.25981471,16.9902735 3.77959706,22.0293029 C8.81862647,27.0687147 16.9902735,27.0687147 22.0293029,22.0293029 C27.0687147,16.9887441 27.0687147,8.81862647 22.0293029,3.77959706 L22.0293029,3.77959706 Z" id="Fill-1"></path>
                </g>
            </g>
        </g>
    </g>
</svg>