<?xml version="1.0" encoding="UTF-8" standalone="no"?>
<svg width="27px" height="35px" viewBox="0 0 27 35" version="1.1" xmlns="http://www.w3.org/2000/svg" xmlns:xlink="http://www.w3.org/1999/xlink">
    <!-- Generator: Sketch 39.1 (31720) - http://www.bohemiancoding.com/sketch -->
    <title>Icon-File</title>
    <desc>Created with Sketch.</desc>
    <defs></defs>
    <g id="Symbols" stroke="none" stroke-width="1" fill="none" fill-rule="evenodd">
        <g id="File-Item-MDK-D" transform="translate(-30.000000, -20.000000)" fill="#47474B">
            <g id="Icon-File" transform="translate(30.000000, 20.000000)">
                <path d="M22.9621271,17.12025 C22.9621271,17.1022895 22.9580085,17.08525 22.9552627,17.06775 C22.9529746,17.0539342 22.9538898,17.0396579 22.9497712,17.0253816 C22.9451949,17.0083421 22.9369576,16.9926842 22.9296356,16.9765658 C22.9236864,16.9632105 22.9204831,16.9503158 22.913161,16.9378816 C22.9035508,16.9217632 22.8907373,16.9070263 22.8783814,16.8922895 C22.8710593,16.8826184 22.8646525,16.8720263 22.8555,16.8628158 C22.8335339,16.8397895 22.8074492,16.8204474 22.7799915,16.8038684 L18.0659746,14.0641974 C17.9529407,13.9978816 17.8133644,13.9988026 17.7003305,14.0651184 L13.1203983,16.7435395 L13.1194831,16.7444605 C13.1089576,16.7499868 13.1007203,16.7591974 13.0911102,16.7665658 C13.0750932,16.7780789 13.0577034,16.7882105 13.0448898,16.8024868 C13.0343644,16.8130789 13.0279576,16.8250526 13.0188051,16.8365658 C13.0082797,16.8503816 12.996839,16.8628158 12.9881441,16.8775526 C12.980822,16.8913684 12.9757881,16.9070263 12.9702966,16.9208421 C12.9643475,16.9355789 12.9565678,16.9493947 12.9524492,16.9650526 C12.9483305,16.98025 12.9483305,16.99775 12.9460424,17.0138684 C12.9442119,17.0295263 12.9400932,17.0442632 12.939178,17.0603816 L12.9236186,22.5116316 C12.9236186,22.6433421 12.9927203,22.764 13.1057542,22.8293947 L17.8197712,25.5686053 C17.8760593,25.6013026 17.9392119,25.6178816 18.0019068,25.6178816 C18.0334831,25.6178816 18.0650593,25.6137368 18.0952627,25.6054474 C18.1016695,25.6036053 18.1076186,25.5999211 18.1131102,25.5980789 C18.1369068,25.5907105 18.161161,25.5815 18.1831271,25.5695263 L18.1835847,25.5686053 L22.7653475,22.8892632 C22.8774661,22.8238684 22.9465678,22.7036711 22.9465678,22.5738026 L22.9621271,17.1225526 L22.9621271,17.1220921 L22.9621271,17.12025 Z M17.8847542,14.8056447 L21.8720593,17.1220921 L19.4246695,18.5529474 L18.0165508,19.3768289 L14.0292458,17.0603816 L17.8847542,14.8056447 Z M13.6645169,17.6954474 L17.651822,20.0123553 L17.6403814,23.89275 L17.6385508,24.6180789 L13.6517034,22.3016316 L13.6645169,17.6954474 Z M22.2189407,22.3610395 L18.3675508,24.6139342 L18.3739576,22.3596579 L18.3803644,20.0123553 L22.2326695,17.7594605 L22.2189407,22.3610395 Z" id="Fill-1"></path>
                <path d="M14.5931339,17.0596908 L18.0157271,19.0482434 L21.3083542,17.1227829 L17.8853034,15.1342303 L14.5931339,17.0596908 Z M18.0166424,19.705875 L13.4655407,17.0615329 L17.8843881,14.4770592 L22.4359475,17.1209408 L18.0166424,19.705875 Z M18.6623542,20.1760724 L18.6513712,24.1190987 L21.9366763,22.1973224 L21.9485746,18.2542961 L18.6623542,20.1760724 Z M18.0834559,25.1087697 L18.0981,19.8481776 L22.5164898,17.264625 L22.5009305,22.5252171 L18.0834559,25.1087697 Z M13.9346085,22.1374539 L17.3572017,24.1260066 L17.3686424,20.1760724 L13.9455915,18.1875197 L13.9346085,22.1374539 Z M17.9205407,25.1096908 L13.3685237,22.4653487 L13.3836254,17.2038355 L17.9351847,19.8481776 L17.9205407,25.1096908 Z M22.6794051,17.1200197 L22.9622186,17.1200197 L22.6794051,17.1200197 Z M17.9658458,25.3206118 L18.024422,25.3284408 L18.0395237,25.323375 L18.0399814,25.3238355 L18.0418119,25.3224539 L22.6235746,22.6435724 C22.6487441,22.6288355 22.6638458,22.602125 22.6638458,22.5740329 L22.6794051,17.1310724 L22.6720831,17.0725855 L17.9246593,14.3103487 C17.8990322,14.2956118 17.8683712,14.2960724 17.8427441,14.3108092 L13.2541169,16.9942961 L13.0083712,16.8501513 L13.2229983,17.0352829 L13.2211678,17.0836382 L13.2065237,22.5123224 C13.2065237,22.5417961 13.2211678,22.5685066 13.2467949,22.5832434 L17.9612695,25.3219934 L17.9658458,25.3206118 Z M18.0019983,25.9022566 C17.8875915,25.9022566 17.7750153,25.8714013 17.6770831,25.8138355 L12.964439,23.0755461 C12.7653712,22.9604145 12.6408966,22.7439671 12.6408966,22.5114013 L12.6646932,16.9832434 C12.6683542,16.9436382 12.6724729,16.9160066 12.6797949,16.8892961 L12.7058797,16.8188355 C12.7191508,16.7856776 12.7278458,16.7640329 12.7388288,16.7437697 L12.8449983,16.6014671 C12.8701678,16.5742961 12.9017441,16.5521908 12.9209644,16.5392961 C12.9237102,16.5365329 12.9292017,16.5319276 12.937439,16.5254803 L12.9786254,16.4973882 L17.5585576,13.8194276 C17.7594559,13.7015329 18.0088627,13.7015329 18.2083881,13.8185066 L22.9214898,16.5577171 C22.9759475,16.5904145 23.0212525,16.6263355 23.0592356,16.6659408 L23.1031678,16.7198224 C23.1201,16.7400855 23.1393203,16.7644934 23.1553373,16.7912039 L23.2216932,16.9473224 C23.231761,16.9827829 23.2340492,17.0127171 23.235422,17.0288355 C23.2413712,17.0619934 23.2450322,17.0905461 23.2450322,17.1200197 L23.2294729,22.5749539 C23.2294729,22.8042961 23.1059136,23.0193618 22.9068458,23.1354145 L18.3223373,25.8165987 C18.2857271,25.8377829 18.2459136,25.8543618 18.1969475,25.8695592 C18.1164051,25.8944276 18.0596593,25.9022566 18.0019983,25.9022566 L18.0019983,25.9022566 Z" id="Fill-3"></path>
                <path d="M1.83050847,33.1578947 L25.1694915,33.1578947 L25.1694915,7.19894737 L19.7205254,1.84210526 L1.83050847,1.84210526 L1.83050847,33.1578947 Z M26.0847458,35 L0.915254237,35 C0.410033898,35 0,34.5873684 0,34.0789474 L0,0.921052632 C0,0.412631579 0.410033898,0 0.915254237,0 L20.0934915,0 C20.3328305,0 20.5621017,0.0944078947 20.7332542,0.262039474 L26.7240508,6.15217105 C26.9006949,6.32578947 27,6.56296053 27,6.81118421 L27,34.0789474 C27,34.5873684 26.5899661,35 26.0847458,35 L26.0847458,35 Z" id="Fill-5"></path>
                <path d="M19.9380814,9.61394737 L4.51330169,9.61394737 C4.11196271,9.61394737 3.78658983,9.28651316 3.78658983,8.88263158 C3.78658983,8.47875 4.11196271,8.15085526 4.51330169,8.15085526 L19.9380814,8.15085526 C20.3394203,8.15085526 20.6647932,8.47875 20.6647932,8.88263158 C20.6647932,9.28651316 20.3394203,9.61394737 19.9380814,9.61394737" id="Fill-7"></path>
                <path d="M14.2347203,6.13186184 L4.51334746,6.13186184 C4.11200847,6.13186184 3.78663559,5.80442763 3.78663559,5.40054605 C3.78663559,4.99666447 4.11200847,4.66876974 4.51334746,4.66876974 L14.2347203,4.66876974 C14.6360593,4.66876974 14.9614322,4.99666447 14.9614322,5.40054605 C14.9614322,5.80442763 14.6360593,6.13186184 14.2347203,6.13186184" id="Fill-9"></path>
                <path d="M15.0444915,13.0957566 L4.51357627,13.0957566 C4.11223729,13.0957566 3.78640678,12.7683224 3.78640678,12.3644408 C3.78640678,11.9605592 4.11223729,11.6326645 4.51357627,11.6326645 L15.0444915,11.6326645 C15.4458305,11.6326645 15.7712034,11.9605592 15.7712034,12.3644408 C15.7712034,12.7683224 15.4458305,13.0957566 15.0444915,13.0957566" id="Fill-11"></path>
                <path d="M10.7104424,16.5778421 L4.51325593,16.5778421 C4.11237458,16.5778421 3.78654407,16.2504079 3.78654407,15.8465263 C3.78654407,15.4426447 4.11237458,15.11475 4.51325593,15.11475 L10.7104424,15.11475 C11.1117814,15.11475 11.4371542,15.4426447 11.4371542,15.8465263 C11.4371542,16.2504079 11.1117814,16.5778421 10.7104424,16.5778421" id="Fill-13"></path>
                <path d="M8.87435085,20.0596513 L4.51362203,20.0596513 C4.11228305,20.0596513 3.78645254,19.7322171 3.78645254,19.3283355 C3.78645254,18.9244539 4.11228305,18.5965592 4.51362203,18.5965592 L8.87435085,18.5965592 C9.27568983,18.5965592 9.60106271,18.9244539 9.60106271,19.3283355 C9.60106271,19.7322171 9.27568983,20.0596513 8.87435085,20.0596513" id="Fill-15"></path>
                <path d="M9.74132542,23.5415066 L4.51339322,23.5415066 C4.11205424,23.5415066 3.78668136,23.2140724 3.78668136,22.8101908 C3.78668136,22.4063092 4.11205424,22.0784145 4.51339322,22.0784145 L9.74132542,22.0784145 C10.1426644,22.0784145 10.4680373,22.4063092 10.4680373,22.8101908 C10.4680373,23.2140724 10.1426644,23.5415066 9.74132542,23.5415066" id="Fill-17"></path>
                <path d="M13.4427966,27.0235461 L4.51357627,27.0235461 C4.11223729,27.0235461 3.78640678,26.6961118 3.78640678,26.2922303 C3.78640678,25.8883487 4.11223729,25.5604539 4.51357627,25.5604539 L13.4427966,25.5604539 C13.8441356,25.5604539 14.1695085,25.8883487 14.1695085,26.2922303 C14.1695085,26.6961118 13.8441356,27.0235461 13.4427966,27.0235461" id="Fill-19"></path>
                <path d="M20.0189441,30.5053553 L4.51362203,30.5053553 C4.11228305,30.5053553 3.78645254,30.1779211 3.78645254,29.7740395 C3.78645254,29.3701579 4.11228305,29.0422632 4.51362203,29.0422632 L20.0189441,29.0422632 C20.4202831,29.0422632 20.7456559,29.3701579 20.7456559,29.7740395 C20.7456559,30.1779211 20.4202831,30.5053553 20.0189441,30.5053553" id="Fill-21"></path>
            </g>
        </g>
    </g>
</svg>