<?xml version="1.0" encoding="UTF-8" standalone="no"?>
<svg width="20px" height="24px" viewBox="0 0 20 24" version="1.1" xmlns="http://www.w3.org/2000/svg" xmlns:xlink="http://www.w3.org/1999/xlink">
    <!-- Generator: Sketch 39.1 (31720) - http://www.bohemiancoding.com/sketch -->
    <title>Page 1</title>
    <desc>Created with Sketch.</desc>
    <defs></defs>
    <g id="UI-Elements" stroke="none" stroke-width="1" fill="none" fill-rule="evenodd">
        <g id="NavBar-Profile-T" transform="translate(-570.000000, -219.000000)" fill="#47474B">
            <g id="Group-6-Copy-4" transform="translate(548.000000, 99.000000)">
                <g id="Group-7" transform="translate(0.000000, 110.000000)">
                    <path d="M38.3325898,19.4790119 L38.3325898,16.5203173 C38.3325898,12.927703 35.4048869,10 31.8122726,10 C28.2200607,10 25.2609636,12.8995288 25.2609636,16.4901306 L25.2609636,19.4492277 L22,19.4492277 L22,31.7959718 L22.4527998,32.0378675 C22.6037331,32.1292324 26.01563,34 31.8106626,34 C37.667276,34 40.6859414,32.0978383 40.8368747,32.0080833 L41.2301062,31.7360009 L41.2301062,19.4790119 L38.3325898,19.4790119 Z M27.0125945,16.4901306 C27.0125945,13.8646967 29.1554445,11.7202368 31.7824884,11.7202368 C34.4083248,11.7202368 36.5809589,13.8646967 36.5809589,16.4901306 L36.5809589,19.4492277 L27.0125945,19.4492277 L27.0125945,16.4901306 Z M39.4784752,30.7990072 C38.5430914,31.251807 35.9772258,32.3083399 31.8106626,32.3083399 C27.6147177,32.3083399 24.7767697,31.251807 23.7516309,30.769223 L23.7516309,21.2008586 L39.5082594,21.2008586 L39.5082594,30.7990072 L39.4784752,30.7990072 Z" id="Page-1"></path>
                </g>
            </g>
        </g>
    </g>
</svg>