<?xml version="1.0" encoding="UTF-8" standalone="no"?>
<svg width="17px" height="21px" viewBox="0 0 17 21" version="1.1" xmlns="http://www.w3.org/2000/svg" xmlns:xlink="http://www.w3.org/1999/xlink">
    <!-- Generator: Sketch 39.1 (31720) - http://www.bohemiancoding.com/sketch -->
    <title>Page 1</title>
    <desc>Created with Sketch.</desc>
    <defs></defs>
    <g id="Login-Register" stroke="none" stroke-width="1" fill="none" fill-rule="evenodd">
        <g id="Login-Register-D" transform="translate(-377.000000, -561.000000)" fill="#47474B">
            <g id="Login" transform="translate(355.000000, 301.000000)">
                <g id="Mail-Copy-6" transform="translate(0.000000, 242.000000)">
                    <path d="M36.2637945,26.2783367 L36.2637945,23.6944102 C36.2637945,20.5568605 33.706934,18 30.5693843,18 C27.4321861,18 24.8479081,20.532255 24.8479081,23.6680472 L24.8479081,26.2523252 L22,26.2523252 L22,37.0351478 L22.3954452,37.2464034 C22.5272602,37.3261955 25.5069834,38.9599991 30.5679783,38.9599991 C35.6827538,38.9599991 38.3190548,37.2987779 38.4508698,37.2203919 L38.794292,36.9827733 L38.794292,26.2783367 L36.2637945,26.2783367 Z M26.3776657,23.6680472 C26.3776657,21.3751683 28.2490879,19.5023401 30.5433728,19.5023401 C32.8366032,19.5023401 34.7340369,21.3751683 34.7340369,23.6680472 L34.7340369,26.2523252 L26.3776657,26.2523252 L26.3776657,23.6680472 Z M37.2645344,36.1644655 C36.4476326,36.5599106 34.2067767,37.482616 30.5679783,37.482616 C26.9035199,37.482616 24.4250454,36.5599106 23.5297576,36.138454 L23.5297576,27.7820828 L37.2905459,27.7820828 L37.2905459,36.1644655 L37.2645344,36.1644655 Z" id="Page-1"></path>
                </g>
            </g>
        </g>
    </g>
</svg>