<?xml version="1.0" encoding="UTF-8" standalone="no"?>
<svg width="39px" height="31px" viewBox="0 0 39 31" version="1.1" xmlns="http://www.w3.org/2000/svg" xmlns:xlink="http://www.w3.org/1999/xlink">
    <!-- Generator: Sketch 39.1 (31720) - http://www.bohemiancoding.com/sketch -->
    <title>Page 1</title>
    <desc>Created with Sketch.</desc>
    <defs></defs>
    <g id="Home" stroke="none" stroke-width="1" fill="none" fill-rule="evenodd">
        <g id="Home-D" transform="translate(-264.000000, -3021.000000)" fill="#47474B">
            <g id="NEWS" transform="translate(30.000000, 2660.000000)">
                <g id="List---Content" transform="translate(213.000000, 337.000000)">
                    <g id="Page-1" transform="translate(21.000000, 24.000000)">
                        <path d="M38.9345731,15.2828881 C38.9345731,19.2389062 38.9375332,23.1919781 38.9286529,27.1450501 C38.9286529,27.4558748 38.84503,27.7696458 38.7754676,28.0745781 C38.7177456,28.3191132 38.6541033,28.5724869 38.5386593,28.7941889 C38.3070312,29.2368564 37.9717995,29.5940838 37.5588651,29.8872313 C37.1681315,30.1634381 36.7374365,30.2930712 36.2778805,30.3623071 C35.9974107,30.405027 35.7147208,30.4337525 35.431291,30.4337525 C24.9843467,30.4573222 14.5366623,30.4742629 4.08971803,30.4941498 C3.84698956,30.4941498 3.6042611,30.5147732 3.36745284,30.4889939 C3.04036143,30.4573222 2.71697016,30.405027 2.39875906,30.3357912 C2.16713098,30.2842326 1.93328283,30.2149968 1.72533558,30.1059871 C1.24209873,29.8496672 0.849145023,29.4990687 0.539814236,29.0357778 C0.314846391,28.6991738 0.251204172,28.3250056 0.140940327,27.9567298 C-0.0670069243,27.25185 0.0166159917,26.529293 0.0166159917,25.813365 C0.00847570787,20.5794299 0.00847570787,15.3462315 0.0166159917,10.1122965 C0.0166159917,9.83093382 0.0980188304,9.54294218 0.16684123,9.26378916 C0.227523346,9.01336164 0.294125669,8.75777827 0.409569695,8.53018386 C0.707800094,7.93431369 1.19325702,7.50269451 1.77713738,7.20365459 C2.03170626,7.07181187 2.33807694,7.04014016 2.62446693,6.97090432 C3.42221475,6.78382024 4.23698316,6.85600228 5.04657139,6.83832505 C5.33296138,6.83243263 5.33296138,6.83537884 5.33296138,6.55917203 C5.33296138,5.50369372 5.32112097,4.44747886 5.33888159,3.391264 C5.34406177,3.0752834 5.41362419,2.75562005 5.48318662,2.44184911 C5.54090863,2.18626573 5.61047106,1.9240534 5.73183529,1.69424933 C5.96568344,1.24789911 6.30683534,0.891408185 6.72642997,0.59531448 C7.11346347,0.319107665 7.54711859,0.212307696 7.99261413,0.132023582 C8.24348287,0.0856208373 8.50101186,0.0598415346 8.75558073,0.0598415346 C13.6116301,0.0370084379 18.4713795,0.0163849957 23.3274289,0.00533672313 C27.4182915,-0.00350189495 31.5084142,-0.000555688924 35.6014969,0.00828292915 C35.919708,0.00828292915 36.2401392,0.0915132494 36.55243,0.163695297 C36.7840581,0.215253902 37.0179063,0.284489744 37.2236335,0.393499367 C37.7031702,0.646873085 38.0850235,1.00925643 38.3965744,1.45781629 C38.6311625,1.79442033 38.7036851,2.17448091 38.7984084,2.55159528 C39.0500171,3.5415205 38.9145924,4.54838641 38.9205126,5.54935991 C38.9404933,8.79460585 38.9286529,12.0405883 38.9286529,15.2858343 L38.9345731,15.2828881 Z M19.4193526,28.4892566 L19.4193526,28.4833642 C24.8193209,28.4833642 30.2163291,28.4833642 35.6162974,28.480418 C35.7576423,28.480418 35.9019474,28.4546387 36.0440323,28.4229669 C36.5095086,28.3279518 36.922443,27.8558223 36.922443,27.3122473 C36.9165227,19.2676317 36.9143027,11.2259624 36.922443,3.18134682 C36.922443,2.56853596 36.3474429,1.99623544 35.7317414,1.99918165 C26.6753056,2.01022992 17.6151697,2.01022992 8.55577376,2.01022992 C7.93415209,2.01022992 7.32437082,2.50813874 7.34213144,3.20712612 C7.39097315,5.14057382 7.29846992,7.07696773 7.39689335,9.01336164 C7.46053557,10.2853861 7.40873377,11.5596202 7.40873377,12.8345909 C7.40873377,16.8738393 7.41095384,20.9108781 7.41095384,24.9501266 C7.41095384,25.2005541 7.41095384,25.2005541 7.15120479,25.2005541 L5.58457015,25.2005541 C5.33296138,25.2005541 5.33296138,25.2005541 5.33296138,24.956019 C5.33296138,23.6810483 5.33000128,22.4097604 5.33000128,21.1347898 L5.33000128,9.12016161 C5.33000128,8.8439548 5.33000128,8.8439548 5.06137191,8.8439548 C4.50043235,8.8439548 3.93949279,8.84100859 3.37855323,8.84984721 C3.2142675,8.85205686 3.04628164,8.87268031 2.88421599,8.91024443 C2.39579896,9.01925406 2.02578605,9.47370634 2.02578605,9.96572274 C2.02578605,15.7631196 2.02578605,21.5634628 2.02874616,27.3608597 C2.02874616,27.4271493 2.02578605,27.4963851 2.04058657,27.5626748 C2.17305119,28.109196 2.64444763,28.4973586 3.25422889,28.4973586 C8.64531689,28.4833642 14.0341848,28.4892566 19.4193526,28.4892566 L19.4193526,28.4892566 Z" id="Fill-1"></path>
                        <path d="M11.0029601,9.88259993 L11.0029601,5.22464821 C11.0029601,5 11.0029601,5 11.2197877,5 L20.5973947,5 C20.8253226,5 20.8253226,5 20.8253226,5.2187558 L20.8253226,14.5692772 C20.8253226,14.7821406 20.8194024,14.788033 20.6114552,14.788033 C17.481146,14.788033 14.3500968,14.788033 11.2168276,14.7909792 C11.0458816,14.7909792 11,14.7423668 11,14.5722234 C11.0059202,13.0099976 11.0029601,11.4477719 11.0029601,9.88259993" id="Fill-4"></path>
                        <path d="M22.3778968,24.2641593 L11.2516088,24.2641593 C11,24.2641593 11,24.2641593 11,24.008576 L11,22.2334868 C11,22 11,22 11.2338482,22 L23.2045056,22 L33.5071449,22 C33.7587536,22 33.7617137,22 33.7617137,22.2474813 L33.7617137,24.0225704 C33.7617137,24.2641593 33.7617137,24.2641593 33.510105,24.2641593 L22.3778968,24.2641593 Z" id="Fill-6"></path>
                        <path d="M22.3926973,18.0005925 L33.5041848,18.0005925 C33.7617137,18.0005925 33.7617137,18.0005925 33.7617137,18.2539662 L33.7617137,19.9973836 C33.7617137,20.2161394 33.7617137,20.2161394 33.5360059,20.2161394 L24.5950141,20.2161394 L11.3270914,20.2161394 C11.2634492,20.2161394 11.2027671,20.2131932 11.142085,20.2161394 C11.0436615,20.2212953 11,20.1844677 11,20.080614 C11.0029601,19.4331852 11.0029601,18.7857564 11,18.1353814 C11,18.0322642 11.0466216,17.9947001 11.142085,18.0005925 C11.1968469,18.0035387 11.2545689,18.0005925 11.3093308,18.0005925 L22.3926973,18.0005925 Z" id="Fill-8"></path>
                        <path d="M28.9085912,7.27005174 L24.2308881,7.27005174 C24.0029601,7.27005174 24.0029601,7.27005174 24,7.03730147 L24,5.22759442 C24,5.01473103 24.0118404,5.00294621 24.2138675,5.00294621 C27.356017,5.00294621 30.4952065,5.00294621 33.6373561,5 C33.7905414,5 33.8430832,5.04640274 33.8401231,5.20107856 C33.8342029,5.82567424 33.8312428,6.45321612 33.8401231,7.07707525 C33.8430832,7.23838003 33.7824011,7.27005174 33.634396,7.27005174 L28.9085912,7.27005174 Z" id="Fill-10"></path>
                        <path d="M28.9375505,13 L33.5797323,13 C33.8402214,13 33.8402214,13 33.8402214,13.2681047 C33.8402214,13.8661846 33.8343012,14.4620547 33.8431815,15.0601346 C33.8461416,15.2214393 33.7935998,15.2700517 33.6322742,15.2700517 C30.4982649,15.2671055 27.3620355,15.2671055 24.2258062,15.2671055 C24.0119387,15.2671055 24.0030584,15.2590035 24.0030584,15.0542422 C24.0030584,14.4414313 24.0089786,13.8256742 24.0000983,13.2128634 C23.9971382,13.0375641 24.0607804,13 24.2258062,13 C25.798361,13.0029462 27.3679557,13 28.9375505,13" id="Fill-12"></path>
                        <path d="M28.9287195,11.2177566 L24.2487963,11.2177566 C24.0060678,11.2177566 24.0060678,11.2177566 24.0031077,10.9791139 C24.0031077,10.3869265 24.0060678,9.79694873 24.0001476,9.20402477 C23.9971875,9.05745102 24.0378889,9 24.1999546,9 C27.3532045,9.00589241 30.5071945,9.00294621 33.6611845,9 C33.7966092,9 33.846191,9.03977378 33.846191,9.18119167 C33.8402708,9.79694873 33.8373107,10.4097596 33.846191,11.0255166 C33.8491511,11.1838752 33.790689,11.2207028 33.6434239,11.2207028 C32.067909,11.2155469 30.4983142,11.2177566 28.9287195,11.2177566" id="Fill-14"></path>
                    </g>
                </g>
            </g>
        </g>
    </g>
</svg>