<?xml version="1.0" encoding="UTF-8" standalone="no"?>
<svg width="46px" height="46px" viewBox="0 0 46 46" version="1.1" xmlns="http://www.w3.org/2000/svg" xmlns:xlink="http://www.w3.org/1999/xlink">
    <!-- Generator: Sketch 39.1 (31720) - http://www.bohemiancoding.com/sketch -->
    <title>Profile-Icon</title>
    <desc>Created with Sketch.</desc>
    <defs></defs>
    <g id="Symbols" stroke="none" stroke-width="1" fill="none" fill-rule="evenodd">
        <g id="NavBar-SignedIn-D" transform="translate(-1413.000000, -27.000000)">
            <g id="Profile-Icon" transform="translate(1413.000000, 27.000000)">
                <g id="Avatar">
                    <g id="Page-1" fill="#4A4A4A">
                        <path d="M30.9632871,17.6700526 C30.9632871,12.4328947 26.7028134,8.17242105 21.4656556,8.17242105 C16.2290766,8.17242105 11.9686029,12.4328947 11.9686029,17.6700526 C11.9686029,19.9088421 12.738024,22.0167895 14.157024,23.7177368 C10.7157608,25.6658947 8.26160292,28.9988947 7.30170818,32.9947895 C5.01602397,29.8360526 3.73365555,25.8882105 3.74060292,21.9079474 C3.7562345,11.8921579 11.9037608,3.74289474 21.9021819,3.74289474 C31.9173924,3.74289474 40.0660766,11.8904211 40.0660766,21.9038947 C40.0660766,26.0375789 38.6239187,29.9842632 35.9746556,33.1812105 C34.980024,29.1662105 32.3579713,25.7006316 28.7823924,23.7096316 C30.1967608,22.011 30.9632871,19.9059474 30.9632871,17.6700526 M17.4934977,26.2824737 C20.0124977,27.4536842 22.9309713,27.4531053 25.4493924,26.2818947 C29.5749713,27.7900526 32.4807082,31.8235789 32.6734977,36.2976842 C29.5471819,38.6007368 25.8066029,39.9022105 21.8269187,40.0666316 L21.8263398,40.0666316 C21.5797082,40.0764737 21.3348134,40.0811053 21.0928134,40.0811053 C17.226024,40.0811053 13.607024,38.8218947 10.5993924,36.4337368 C10.7256029,31.7824737 13.4507082,27.7721053 17.4934977,26.2824737 M21.4685503,11.913 C24.640024,11.913 27.2203924,14.4956842 27.2203924,17.6700526 C27.2203924,20.8415263 24.640024,23.4213158 21.4685503,23.4213158 C18.2953398,23.4213158 15.7138134,20.8403684 15.7138134,17.6671579 C15.7138134,14.4945263 18.2953398,11.913 21.4685503,11.913 M21.9050766,0 C9.84560292,0 0.0191292358,9.82531579 2.39726848e-05,21.9027368 C-0.00866023784,27.8554737 2.34244503,33.6304737 6.4512345,37.7479474 C10.3637608,41.6662632 15.5638661,43.8245789 21.0928134,43.8245789 C21.3892345,43.8245789 21.6879713,43.8193684 21.9820766,43.8054737 C34.221024,43.3052632 43.8089713,33.6854737 43.8089713,21.9038947 C43.8089713,9.82589474 33.9830766,0 21.9050766,0" id="Fill-1"></path>
                    </g>
                    <g id="CheckMark" transform="translate(31.000000, 31.000000)">
                        <circle id="Oval-1" fill="#FFFFFF" cx="7.5" cy="7.5" r="6.42857143"></circle>
                        <path d="M0,7.5 C0,11.6422 3.3578,15 7.5,15 C11.6422,15 15,11.6422 15,7.5 C15,3.3578 11.6422,0 7.5,0 C3.3578,0 0,3.3578 0,7.5 Z M11.1914,6.3828 L7.1852,10.389 C6.6984,10.875 5.9282,10.9 5.4726,10.4446 C5.407,10.379 5.3546,10.3062 5.3094,10.2296 L3.6718,8.593 C3.1852,8.1062 3.161,7.3368 3.6164,6.8804 C4.0726,6.425 4.843,6.4492 5.329,6.936 L6.3274,7.9344 L9.5344,4.7266 C10.021,4.2406 10.7914,4.2156 11.2468,4.671 C11.7024,5.1266 11.6774,5.8968 11.1914,6.3828" id="Page-1" fill="#6FD500"></path>
                    </g>
                </g>
            </g>
        </g>
    </g>
</svg>