<?xml version="1.0" encoding="UTF-8" standalone="no"?>
<svg width="24px" height="24px" viewBox="0 0 24 24" version="1.1" xmlns="http://www.w3.org/2000/svg" xmlns:xlink="http://www.w3.org/1999/xlink">
    <!-- Generator: Sketch 39.1 (31720) - http://www.bohemiancoding.com/sketch -->
    <title>Fill 1</title>
    <desc>Created with Sketch.</desc>
    <defs></defs>
    <g id="UI-Elements" stroke="none" stroke-width="1" fill="none" fill-rule="evenodd">
        <g id="NavBar-Profile-T" transform="translate(-569.000000, -175.000000)" fill="#47474B">
            <g id="Group-6-Copy-4" transform="translate(548.000000, 99.000000)">
                <g id="Group-2" transform="translate(0.000000, 66.000000)">
                    <path d="M31.2272785,10.0000056 L31.2272785,10.0000056 C30.8254603,10.0010966 30.4789149,10.2825511 30.3949149,10.6760056 L30.0625512,12.2570966 C29.4090967,12.4374602 28.7643694,12.6789147 28.137824,13.0000056 L26.7800058,12.1505511 C26.441824,11.9400056 26.0043694,11.9912784 25.7243694,12.2738238 L23.2741876,14.7243693 C22.9930967,15.0069147 22.9447331,15.4458238 23.157824,15.7825511 L24.0425512,17.1745511 C23.7301876,17.7527329 23.4730967,18.3661875 23.2741876,19.0112784 L21.6563694,19.3945511 C21.2712785,19.4854602 20.9985512,19.8309147 21.0000058,20.2269147 L21.0000058,23.6363693 C21.0000058,24.0309147 21.2712785,24.3749147 21.6563694,24.4658238 L23.2741876,24.8480056 C23.4730967,25.4941875 23.7301876,26.1061875 24.0425512,26.6858238 L23.157824,28.0778238 C22.9447331,28.411642 22.9901876,28.8490966 23.2672785,29.1320056 L25.6647331,31.5821875 C25.9461876,31.8720056 26.3920058,31.9232784 26.7330967,31.7058238 L28.1349149,30.8138238 C28.7516422,31.1418238 29.3949149,31.4003693 30.0596422,31.5934602 L30.3949149,33.1843693 C30.4774603,33.5792784 30.8240058,33.8621875 31.2272785,33.8632784 L34.6363694,33.8632784 C35.0385512,33.8647329 35.3880058,33.5850966 35.4730967,33.191642 L35.8054603,31.6490966 C36.4916422,31.455642 37.1549149,31.1960056 37.7854603,30.8632784 L39.1407331,31.7101875 C39.4745512,31.9174602 39.9061876,31.8705511 40.1861876,31.5963693 L42.5840058,29.2527329 C42.8680058,28.975642 42.921824,28.539642 42.7174603,28.2000056 L41.8680058,26.799642 C42.1920058,26.1960056 42.4505512,25.563642 42.6465512,24.911642 L44.2414603,24.5752784 C44.6349149,24.4912784 44.9163694,24.1447329 44.917824,23.7425511 L44.917824,20.2269147 C44.9192785,19.8250966 44.637824,19.475642 44.2443694,19.3920056 L42.7061876,19.0581875 C42.5116422,18.3861875 42.2487331,17.7400056 41.9207331,17.1247329 L42.7629149,15.7752784 C42.9716422,15.4400056 42.921824,15.0040056 42.6436422,14.7243693 L40.1934603,12.2738238 C39.9134603,11.9927329 39.4774603,11.9414602 39.1407331,12.1505511 L37.789824,12.995642 C37.1749149,12.6701875 36.529824,12.4087329 35.8581876,12.2141875 L35.525824,10.671642 C35.4403694,10.2781875 35.0923694,9.9985511 34.6905512,10.0000056 L31.2272785,10.0000056 Z M31.9207331,11.7043693 L34.0043694,11.7043693 L34.2843694,13.0025511 C34.353824,13.323642 34.6025512,13.5763693 34.9232785,13.651642 C35.833824,13.8661875 36.6876422,14.2000056 37.4403694,14.6647329 C37.7160058,14.8349147 38.0640058,14.8349147 38.3396422,14.6647329 L39.4672785,13.9585511 L40.9589149,15.4501875 L40.2530967,16.5778238 C40.0810967,16.8520056 40.0796422,17.2014602 40.2501876,17.4770966 C40.7130967,18.2283693 41.0512785,19.083642 41.265824,19.9941875 C41.3410967,20.3152784 41.5923694,20.563642 41.9149149,20.6334602 L43.2130967,20.9130966 L43.2130967,23.0494602 L41.8680058,23.3334602 C41.5483694,23.4003693 41.2941876,23.6447329 41.2145512,23.9629147 C40.9916422,24.8632784 40.6636422,25.6960056 40.2032785,26.4287329 C40.029824,26.7014602 40.0272785,27.0480056 40.1934603,27.3250966 L40.9090967,28.5040056 L39.4745512,29.9090966 L38.3396422,29.1960056 C38.0640058,29.0254602 37.7160058,29.0254602 37.4403694,29.1960056 C36.6803694,29.6647329 35.8069149,29.9941875 34.873824,30.2087329 C34.5512785,30.2825511 34.3010967,30.5352784 34.2301876,30.8578238 L33.9505512,32.1589147 L31.9207331,32.1589147 L31.637824,30.8109147 C31.569824,30.4898238 31.3240058,30.235642 31.0043694,30.1574602 C30.0796422,29.9330966 29.225824,29.6105511 28.4843694,29.1461875 C28.2076422,28.9712784 27.853824,28.9712784 27.5752785,29.1461875 L26.4007331,29.8920056 L24.9589149,28.4203693 L25.7145512,27.2312784 C25.8894603,26.9570966 25.8934603,26.607642 25.7243694,26.3294602 C25.2687331,25.5807329 24.9134603,24.7669147 24.7061876,23.9090966 C24.6309149,23.5963693 24.3865512,23.3534602 24.073824,23.279642 L22.7047331,22.9570966 L22.7047331,20.8960056 L24.073824,20.5738238 C24.3865512,20.499642 24.6309149,20.255642 24.7061876,19.9443693 C24.9134603,19.0850966 25.2672785,18.2727329 25.7243694,17.5240056 C25.8934603,17.2454602 25.8894603,16.8960056 25.7145512,16.6218238 L24.9661876,15.4400056 L26.4505512,13.9541875 L27.5825512,14.6603693 C27.8581876,14.8323693 28.2090967,14.8323693 28.4843694,14.6603693 C29.1974603,14.215642 30.0640058,13.9258238 31.0043694,13.6985511 C31.3240058,13.6207329 31.569824,13.367642 31.637824,13.0450966 L31.9207331,11.7043693 Z M32.985824,16.8181875 C30.1720058,16.8181875 27.8723694,19.1178238 27.8723694,21.931642 C27.8723694,24.7454602 30.1720058,27.0425511 32.985824,27.0425511 C35.7996422,27.0425511 38.0996422,24.7454602 38.0996422,21.931642 C38.0996422,19.1178238 35.7996422,16.8181875 32.985824,16.8181875 L32.985824,16.8181875 Z M32.985824,18.5225511 C34.877824,18.5225511 36.3949149,20.039642 36.3949149,21.931642 C36.3949149,23.823642 34.877824,25.3378238 32.985824,25.3378238 C31.0923694,25.3378238 29.5767331,23.823642 29.5767331,21.931642 C29.5767331,20.039642 31.0923694,18.5225511 32.985824,18.5225511 L32.985824,18.5225511 Z" id="Fill-1"></path>
                </g>
            </g>
        </g>
    </g>
</svg>