<?xml version="1.0" encoding="UTF-8" standalone="no"?>
<svg width="18px" height="24px" viewBox="0 0 18 24" version="1.1" xmlns="http://www.w3.org/2000/svg" xmlns:xlink="http://www.w3.org/1999/xlink">
    <!-- Generator: Sketch 39.1 (31720) - http://www.bohemiancoding.com/sketch -->
    <title>Page 1</title>
    <desc>Created with Sketch.</desc>
    <defs></defs>
    <g id="Showcase-Project" stroke="none" stroke-width="1" fill="none" fill-rule="evenodd">
        <g id="Showcase-Project-D" transform="translate(-818.000000, -3539.000000)" fill="#D5D5D5">
            <g id="Group-4" transform="translate(255.000000, 800.000000)">
                <g id="Group-6-Copy-3" transform="translate(537.000000, 2726.000000)">
                    <path d="M38.01408,30.158 L33.1888762,26.3264 C33.3418057,25.914 33.4301562,25.4704 33.4301562,25 C33.4301562,24.5188 33.3374476,24.0592 33.1746133,23.6376 L37.9273143,19.7828 C38.5386362,20.2328 39.2969448,20.5 40.1142857,20.5 C42.1665524,20.5 43.8285714,18.822 43.8285714,16.75 C43.8285714,14.678 42.1665524,13 40.1142857,13 C38.0604343,13 36.4,14.678 36.4,16.75 C36.4,17.178 36.4697295,17.5876 36.59968,17.9704 L31.77408,21.8828 C31.1877181,21.4844 30.4773486,21.25 29.7142857,21.25 C27.6604343,21.25 26,22.928 26,25 C26,27.072 27.6604343,28.75 29.7142857,28.75 C30.4896305,28.75 31.2138667,28.5092 31.8129067,28.0968 L36.6385067,31.9264 C36.485181,32.3392 36.4,32.786 36.4,33.25 C36.4,35.322 38.0604343,37 40.1142857,37 C42.1665524,37 43.8285714,35.322 43.8285714,33.25 C43.8285714,31.178 42.1665524,29.5 40.1142857,29.5 C39.3373562,29.5 38.6115352,29.7436 38.01408,30.158 Z" id="Page-1"></path>
                </g>
            </g>
        </g>
    </g>
</svg>