<?xml version="1.0" encoding="UTF-8" standalone="no"?>
<svg width="20px" height="21px" viewBox="0 0 20 21" version="1.1" xmlns="http://www.w3.org/2000/svg" xmlns:xlink="http://www.w3.org/1999/xlink">
    <!-- Generator: Sketch 39.1 (31720) - http://www.bohemiancoding.com/sketch -->
    <title>Page 1</title>
    <desc>Created with Sketch.</desc>
    <defs></defs>
    <g id="Login-Register" stroke="none" stroke-width="1" fill="none" fill-rule="evenodd">
        <g id="Login-Register-D" transform="translate(-375.000000, -485.000000)" fill="#47474B">
            <g id="Login" transform="translate(355.000000, 301.000000)">
                <g id="Mail-Copy-5" transform="translate(0.000000, 166.000000)">
                    <g id="Page-1" transform="translate(20.000000, 18.000000)">
                        <path d="M9.81757576,11.7 C6.54606061,11.7 3.90848485,9.0888 3.90848485,5.85 C3.90848485,2.6112 6.54606061,0 9.81757576,0 C13.0890909,0 15.7266667,2.6112 15.7266667,5.85 C15.7266667,9.0888 13.0890909,11.7 9.81757576,11.7 M9.81757576,1.8 C7.54484848,1.8 5.72666667,3.6 5.72666667,5.85 C5.72666667,8.1 7.54484848,9.9 9.81757576,9.9 C12.090303,9.9 13.9084848,8.1 13.9084848,5.85 C13.9084848,3.6 12.090303,1.8 9.81757576,1.8" id="Fill-1"></path>
                        <path d="M18.5436364,20.9694 L1.31878788,20.9694 C0.40969697,20.9694 0,19.9806 0,19.3056 L0,16.3362 C0,12.7806 4.40787879,10.0362 10,10.0362 C15.5915152,10.0362 20,12.7806 20,16.3362 L20,19.3056 C20,19.8444 19.5006061,20.9694 18.5436364,20.9694 L18.5436364,20.9694 Z M1.81818182,19.1694 L18.1818182,19.1694 L18.1818182,16.3338 C18.1818182,13.9032 14.4551515,11.8338 10,11.8338 C5.54424242,11.8338 1.81818182,13.9032 1.81818182,16.3338 L1.81818182,19.1694 Z" id="Fill-3"></path>
                    </g>
                </g>
            </g>
        </g>
    </g>
</svg>